<?xml version="1.0" encoding="utf-8"?>
<!-- Generator: Adobe Illustrator 15.1.0, SVG Export Plug-In . SVG Version: 6.00 Build 0)  -->
<!DOCTYPE svg PUBLIC "-//W3C//DTD SVG 1.1//EN" "http://www.w3.org/Graphics/SVG/1.1/DTD/svg11.dtd">
<svg version="1.1" id="Capa_1" xmlns="http://www.w3.org/2000/svg" xmlns:xlink="http://www.w3.org/1999/xlink" x="0px" y="0px"
	 width="20px" height="20px" viewBox="0 0 20 20" enable-background="new 0 0 20 20" xml:space="preserve">
<g>
	<defs>
		<rect id="SVGID_1_" y="0.001" width="20" height="19.999"/>
	</defs>
	<clipPath id="SVGID_2_">
		<use xlink:href="#SVGID_1_"  overflow="visible"/>
	</clipPath>
	<path clip-path="url(#SVGID_2_)" fill="#C92728" d="M10,0c5.523,0,10,4.477,10,10C20,15.523,15.523,20,10,20
		c-5.523,0-10-4.477-10-9.999C0,4.478,4.477,0,10,0"/>
	<path clip-path="url(#SVGID_2_)" fill="#FFFFFF" d="M10.303,4.379c-3.524,0-5.299,2.447-5.299,4.486
		c0,1.235,0.482,2.334,1.518,2.743c0.17,0.067,0.323,0.004,0.371-0.18l0.152-0.576c0.05-0.18,0.03-0.242-0.107-0.399
		c-0.299-0.341-0.489-0.783-0.489-1.408c0-1.815,1.402-3.439,3.651-3.439c1.992,0,3.085,1.178,3.085,2.751
		c0,2.07-0.946,3.818-2.351,3.818c-0.775,0-1.356-0.621-1.17-1.384c0.223-0.909,0.655-1.891,0.655-2.548
		c0-0.586-0.326-1.078-1-1.078c-0.793,0-1.429,0.794-1.429,1.859c0,0.678,0.236,1.136,0.236,1.136l-0.954,3.913
		c-0.283,1.16-0.042,2.584-0.022,2.728c0.013,0.086,0.125,0.105,0.176,0.042c0.074-0.093,1.018-1.222,1.339-2.351
		c0.091-0.319,0.522-1.975,0.522-1.975c0.258,0.478,1.011,0.896,1.812,0.896c2.383,0,4.001-2.104,4.001-4.921
		C14.997,6.363,13.135,4.379,10.303,4.379"/>
</g>
</svg>
