<?xml version="1.0" encoding="utf-8"?>
<!-- Generator: Adobe Illustrator 15.1.0, SVG Export Plug-In . SVG Version: 6.00 Build 0)  -->
<!DOCTYPE svg PUBLIC "-//W3C//DTD SVG 1.1//EN" "http://www.w3.org/Graphics/SVG/1.1/DTD/svg11.dtd">
<svg version="1.1" id="Capa_1" xmlns="http://www.w3.org/2000/svg" xmlns:xlink="http://www.w3.org/1999/xlink" x="0px" y="0px"
	 width="20px" height="20px" viewBox="0 0 20 20" enable-background="new 0 0 20 20" xml:space="preserve">
<g>
	<defs>
		<rect id="SVGID_1_" width="20" height="20"/>
	</defs>
	<clipPath id="SVGID_2_">
		<use xlink:href="#SVGID_1_"  overflow="visible"/>
	</clipPath>
	<path clip-path="url(#SVGID_2_)" fill="#63A6DB" d="M20,10c0,5.523-4.477,10-10,10C4.477,20,0,15.523,0,10C0,4.478,4.477,0,10,0
		C15.523,0,20,4.478,20,10"/>
	<path clip-path="url(#SVGID_2_)" fill="#F2F2F3" d="M16.125,7.188c-0.428,0.19-0.889,0.318-1.372,0.376
		c0.493-0.297,0.871-0.764,1.051-1.323c-0.462,0.274-0.974,0.473-1.518,0.58c-0.437-0.465-1.058-0.754-1.745-0.754
		c-1.321,0-2.391,1.07-2.391,2.389c0,0.188,0.021,0.371,0.062,0.546c-1.986-0.1-3.748-1.052-4.926-2.499
		C5.079,6.856,4.962,7.267,4.962,7.706c0,0.83,0.422,1.561,1.063,1.99c-0.392-0.013-0.76-0.121-1.083-0.3v0.03
		c0,1.159,0.824,2.125,1.917,2.344c-0.199,0.055-0.411,0.083-0.629,0.083c-0.154,0-0.304-0.014-0.449-0.041
		c0.304,0.949,1.186,1.64,2.233,1.659c-0.819,0.641-1.849,1.022-2.969,1.022c-0.193,0-0.384-0.01-0.57-0.033
		c1.057,0.679,2.313,1.073,3.663,1.073c4.397,0,6.801-3.642,6.801-6.8c0-0.105-0.003-0.206-0.008-0.309
		C15.4,8.087,15.805,7.666,16.125,7.188"/>
</g>
</svg>
