<?xml version="1.0" encoding="utf-8"?>
<!-- Generator: Adobe Illustrator 15.1.0, SVG Export Plug-In . SVG Version: 6.00 Build 0)  -->
<!DOCTYPE svg PUBLIC "-//W3C//DTD SVG 1.1//EN" "http://www.w3.org/Graphics/SVG/1.1/DTD/svg11.dtd">
<svg version="1.1" id="Capa_1" xmlns="http://www.w3.org/2000/svg" xmlns:xlink="http://www.w3.org/1999/xlink" x="0px" y="0px"
	 width="20px" height="20px" viewBox="0 0 20 20" enable-background="new 0 0 20 20" xml:space="preserve">
<g>
	<defs>
		<rect id="SVGID_1_" y="-0.001" width="20" height="20.001"/>
	</defs>
	<clipPath id="SVGID_2_">
		<use xlink:href="#SVGID_1_"  overflow="visible"/>
	</clipPath>
	<path clip-path="url(#SVGID_2_)" fill="#D52624" d="M20,10c0,5.522-4.477,10-10,10C4.477,20,0,15.522,0,10S4.477,0,10,0
		C15.523,0,20,4.478,20,10"/>
	<path clip-path="url(#SVGID_2_)" fill="#FFFFFF" d="M9.142,11.821V7.999l2.9,1.912L9.142,11.821z M15.233,8.071
		c0-0.839-0.68-1.519-1.518-1.519H6.599c-0.838,0-1.517,0.68-1.517,1.519v4.07c0,0.837,0.679,1.517,1.517,1.517h7.117
		c0.838,0,1.518-0.68,1.518-1.517V8.071z"/>
</g>
<g>
	<defs>
		<rect id="SVGID_3_" y="-0.001" width="20" height="20.001"/>
	</defs>
	<clipPath id="SVGID_4_">
		<use xlink:href="#SVGID_3_"  overflow="visible"/>
	</clipPath>
	<path clip-path="url(#SVGID_4_)" fill="#D52624" d="M20,10c0,5.522-4.477,10-10,10C4.477,20,0,15.522,0,10S4.477,0,10,0
		C15.523,0,20,4.478,20,10"/>
	<path clip-path="url(#SVGID_4_)" fill="#FFFFFF" d="M9.142,11.821V7.999l2.9,1.912L9.142,11.821z M15.233,8.071
		c0-0.839-0.68-1.519-1.518-1.519H6.599c-0.838,0-1.517,0.68-1.517,1.519v4.07c0,0.837,0.679,1.517,1.517,1.517h7.117
		c0.838,0,1.518-0.68,1.518-1.517V8.071z"/>
</g>
</svg>
