<?xml version="1.0" encoding="utf-8"?>
<!-- Generator: Adobe Illustrator 15.1.0, SVG Export Plug-In . SVG Version: 6.00 Build 0)  -->
<!DOCTYPE svg PUBLIC "-//W3C//DTD SVG 1.1//EN" "http://www.w3.org/Graphics/SVG/1.1/DTD/svg11.dtd">
<svg version="1.1" id="Capa_1" xmlns="http://www.w3.org/2000/svg" xmlns:xlink="http://www.w3.org/1999/xlink" x="0px" y="0px"
	 width="80px" height="80px" viewBox="0 0 80 80" enable-background="new 0 0 80 80" xml:space="preserve">
<g>
	<defs>
		<rect id="SVGID_1_" width="80" height="80"/>
	</defs>
	<clipPath id="SVGID_2_">
		<use xlink:href="#SVGID_1_"  overflow="visible"/>
	</clipPath>
	<path clip-path="url(#SVGID_2_)" fill="#A777B1" d="M40,80c22.091,0,40-17.909,40-40S62.091,0,40,0S0,17.909,0,40S17.909,80,40,80"
		/>
</g>
<g>
	<defs>
		<circle id="SVGID_3_" cx="40" cy="40" r="40"/>
	</defs>
	<clipPath id="SVGID_4_">
		<use xlink:href="#SVGID_3_"  overflow="visible"/>
	</clipPath>
	<path clip-path="url(#SVGID_4_)" fill="#FFFFFF" d="M54.134,50.18c-0.33-0.2-0.535-0.437-0.615-0.711
		c-0.031-0.096-0.04-0.461-0.023-1.096c0.016-0.636,0.036-1.41,0.06-2.326c0.025-0.915,0.062-1.903,0.109-2.964s0.096-2.061,0.144-3
		c0.05-0.94,0.098-1.751,0.146-2.434c0.048-0.683,0.088-1.112,0.121-1.289c0.048-0.257,0.116-0.458,0.204-0.603
		c0.089-0.144,0.2-0.253,0.338-0.325c0.136-0.072,0.305-0.121,0.506-0.145s0.437-0.036,0.711-0.036c0.562,0,0.967,0.121,1.217,0.362
		c0.249,0.241,0.397,0.522,0.446,0.843c0.015,0.113,0.032,0.466,0.048,1.06c0.016,0.595,0.036,1.314,0.06,2.157
		c0.024,0.844,0.049,1.756,0.072,2.734c0.024,0.981,0.044,1.904,0.062,2.772c0.015,0.867,0.036,1.619,0.06,2.253
		c0.024,0.635,0.044,1.04,0.061,1.217c0.016,0.257-0.036,0.494-0.157,0.711c-0.12,0.218-0.289,0.41-0.506,0.578
		c-0.218,0.169-0.471,0.302-0.76,0.398c-0.288,0.096-0.586,0.145-0.891,0.145C54.933,50.481,54.463,50.381,54.134,50.18
		 M59.544,35.058c-0.225-0.256-0.518-0.485-0.88-0.686c-0.361-0.201-0.779-0.362-1.253-0.482c-0.475-0.121-1-0.157-1.578-0.109
		c-0.579,0.048-1.117,0.113-1.615,0.193s-0.943,0.205-1.337,0.373c-0.394,0.169-0.727,0.394-1,0.675
		c-0.273,0.281-0.467,0.639-0.579,1.073c-0.063,0.289-0.12,0.771-0.168,1.446c-0.049,0.674-0.089,1.442-0.121,2.301
		c-0.031,0.86-0.056,1.759-0.071,2.699c-0.017,0.939-0.028,1.823-0.036,2.65c-0.008,0.828-0.008,1.546,0,2.157
		c0.008,0.61,0.012,1.012,0.012,1.205c0.032,0.337,0.072,0.638,0.12,0.903c0.048,0.265,0.133,0.506,0.253,0.723
		c0.121,0.217,0.297,0.422,0.53,0.615c0.232,0.192,0.558,0.369,0.976,0.529c0.193,0.08,0.555,0.12,1.085,0.12s1.092-0.02,1.688-0.06
		c0.594-0.04,1.151-0.1,1.675-0.18c0.521-0.081,0.879-0.169,1.072-0.267c0.192-0.096,0.404-0.256,0.639-0.481
		c0.231-0.225,0.457-0.519,0.674-0.879c0.217-0.362,0.41-0.791,0.579-1.289c0.168-0.498,0.277-1.062,0.325-1.688
		c0.032-0.418,0.044-0.96,0.036-1.627c-0.009-0.666-0.032-1.382-0.072-2.145c-0.04-0.764-0.084-1.542-0.133-2.337
		c-0.048-0.796-0.101-1.522-0.156-2.182c-0.057-0.659-0.109-1.217-0.157-1.675s-0.081-0.735-0.096-0.832
		C59.905,35.563,59.769,35.316,59.544,35.058 M47.157,51.276l1.977,0.145L48.82,34.046l-2.386-0.144l-1.951,10.097l-2.387-9.736
		l-2.338-0.072l-0.024,17.23h2.217v-9.543l2.023,4.507h1.182l1.88-6.603L47.157,51.276z M31.771,50.18
		c-0.33-0.2-0.535-0.437-0.615-0.711c-0.032-0.096-0.04-0.461-0.024-1.096c0.016-0.636,0.036-1.41,0.06-2.326
		c0.024-0.915,0.061-1.903,0.109-2.964c0.048-1.061,0.096-2.061,0.144-3c0.049-0.94,0.097-1.751,0.145-2.434
		c0.048-0.683,0.088-1.112,0.12-1.289c0.049-0.257,0.117-0.458,0.205-0.603c0.088-0.144,0.201-0.253,0.338-0.325
		c0.136-0.072,0.305-0.121,0.506-0.145c0.2-0.024,0.437-0.036,0.711-0.036c0.562,0,0.967,0.121,1.217,0.362
		c0.249,0.241,0.397,0.522,0.445,0.843c0.016,0.113,0.032,0.466,0.049,1.06c0.015,0.595,0.036,1.314,0.06,2.157
		c0.024,0.844,0.048,1.756,0.072,2.734c0.024,0.981,0.044,1.904,0.06,2.772c0.016,0.867,0.037,1.619,0.061,2.253
		c0.024,0.635,0.044,1.04,0.06,1.217c0.016,0.257-0.036,0.494-0.157,0.711c-0.12,0.218-0.289,0.41-0.506,0.578
		c-0.217,0.169-0.47,0.302-0.759,0.398c-0.289,0.096-0.587,0.145-0.892,0.145C32.57,50.481,32.1,50.381,31.771,50.18 M37.181,35.058
		c-0.225-0.256-0.518-0.485-0.88-0.686c-0.361-0.201-0.779-0.362-1.253-0.482c-0.474-0.121-1-0.157-1.578-0.109
		c-0.579,0.048-1.117,0.113-1.615,0.193s-0.944,0.205-1.337,0.373c-0.394,0.169-0.728,0.394-1.001,0.675
		c-0.273,0.281-0.466,0.639-0.578,1.073c-0.064,0.289-0.12,0.771-0.169,1.446c-0.048,0.674-0.088,1.442-0.12,2.301
		c-0.032,0.86-0.057,1.759-0.072,2.699c-0.017,0.939-0.028,1.823-0.037,2.65c-0.007,0.828-0.007,1.546,0,2.157
		c0.009,0.61,0.013,1.012,0.013,1.205c0.032,0.337,0.072,0.638,0.12,0.903c0.048,0.265,0.133,0.506,0.253,0.723
		c0.121,0.217,0.297,0.422,0.53,0.615c0.233,0.192,0.558,0.369,0.976,0.529c0.193,0.08,0.554,0.12,1.085,0.12
		c0.53,0,1.092-0.02,1.687-0.06c0.594-0.04,1.152-0.1,1.674-0.18c0.522-0.081,0.88-0.169,1.073-0.267
		c0.193-0.096,0.405-0.256,0.638-0.481c0.233-0.225,0.458-0.519,0.675-0.879c0.217-0.362,0.41-0.791,0.579-1.289
		c0.168-0.498,0.277-1.062,0.325-1.688c0.032-0.418,0.044-0.96,0.036-1.627c-0.008-0.666-0.032-1.382-0.072-2.145
		c-0.041-0.764-0.085-1.542-0.133-2.337c-0.048-0.796-0.1-1.522-0.156-2.182c-0.057-0.659-0.109-1.217-0.157-1.675
		s-0.081-0.735-0.096-0.832C37.542,35.563,37.406,35.316,37.181,35.058 M27.204,35.215c-0.064-0.201-0.161-0.389-0.289-0.566
		c-0.129-0.177-0.289-0.334-0.482-0.47c-0.193-0.137-0.41-0.221-0.651-0.253c-0.305-0.048-0.715-0.088-1.229-0.121
		c-0.514-0.032-1.004-0.048-1.47-0.048c-0.193,0-0.406,0.004-0.638,0.012c-0.234,0.008-0.438,0.028-0.615,0.06
		c-0.273,0.049-0.502,0.149-0.687,0.302c-0.185,0.152-0.345,0.333-0.482,0.542c-0.136,0.209-0.245,0.434-0.325,0.675
		c-0.081,0.241-0.153,0.482-0.217,0.722c-0.048,0.209-0.096,0.515-0.145,0.916c-0.048,0.402-0.096,0.852-0.144,1.35
		c-0.048,0.498-0.093,1.016-0.133,1.554c-0.04,0.539-0.072,1.06-0.096,1.567c-0.024,0.506-0.045,0.964-0.06,1.373
		c-0.017,0.409-0.024,0.727-0.024,0.951c0,0.338-0.004,0.728-0.013,1.17c-0.007,0.441-0.012,0.892-0.012,1.349
		c0,0.458,0.009,0.904,0.025,1.338c0.015,0.434,0.039,0.803,0.072,1.108c0.048,0.29,0.12,0.587,0.217,0.892
		c0.096,0.305,0.22,0.591,0.373,0.856c0.153,0.265,0.338,0.484,0.554,0.661c0.217,0.178,0.47,0.289,0.76,0.339
		c0.208,0.031,0.413,0.056,0.614,0.071c0.201,0.017,0.406,0.024,0.615,0.024c0.465,0,0.923-0.04,1.373-0.12
		c0.37-0.081,0.759-0.298,1.169-0.651c0.41-0.353,0.711-0.835,0.904-1.445c0.176-0.61,0.269-1.146,0.277-1.604
		c0.008-0.457,0.004-0.693-0.012-0.71v-0.241H23.83v0.266c0.032,0.466,0.052,0.906,0.06,1.325c0.008,0.418,0.004,0.667-0.012,0.746
		c-0.096,0.596-0.361,0.893-0.795,0.893h-0.265h-0.241c-0.145,0-0.285-0.008-0.422-0.024c-0.136-0.016-0.261-0.056-0.373-0.121
		c-0.033-0.031-0.089-0.096-0.169-0.192c-0.08-0.097-0.12-0.297-0.12-0.603v-1.108c0-0.497,0.003-1.057,0.012-1.675
		c0.008-0.618,0.02-1.262,0.036-1.928c0.016-0.667,0.028-1.29,0.036-1.868c0.008-0.577,0.02-1.088,0.036-1.529
		c0.016-0.442,0.032-0.743,0.048-0.904c0-0.064,0.004-0.136,0.012-0.217c0.008-0.08,0.02-0.16,0.036-0.241
		c0.016-0.257,0.04-0.582,0.073-0.976c0.032-0.393,0.076-0.791,0.132-1.193c0.056-0.401,0.121-0.763,0.193-1.084
		c0.072-0.321,0.157-0.538,0.253-0.651c0.145-0.176,0.506-0.265,1.085-0.265c0.176,0,0.345,0.008,0.506,0.024
		c0.16,0.016,0.305,0.033,0.433,0.048c0.177,0.033,0.322,0.117,0.434,0.253c0.112,0.137,0.185,0.414,0.217,0.832
		c0.016,0.37,0.02,0.715,0.012,1.036c-0.008,0.322-0.012,0.49-0.012,0.506l-0.024,0.265l2.362-0.048v-0.265v-0.301v-0.639
		c0-0.241-0.004-0.494-0.012-0.759c-0.009-0.265-0.021-0.486-0.037-0.663C27.308,35.597,27.268,35.416,27.204,35.215"/>
	<path clip-path="url(#SVGID_4_)" fill="#FFFFFF" d="M38.694,29.353l-1.926-0.88c-1.925,1.791-2.787,2.294-5.32,3.866l1.165,0.44
		C35.806,31.333,36.059,31.333,38.694,29.353"/>
</g>
</svg>
