<?xml version="1.0" encoding="utf-8"?>
<!-- Generator: Adobe Illustrator 15.1.0, SVG Export Plug-In . SVG Version: 6.00 Build 0)  -->
<!DOCTYPE svg PUBLIC "-//W3C//DTD SVG 1.1//EN" "http://www.w3.org/Graphics/SVG/1.1/DTD/svg11.dtd">
<svg version="1.1" id="Capa_1" xmlns="http://www.w3.org/2000/svg" xmlns:xlink="http://www.w3.org/1999/xlink" x="0px" y="0px"
	 width="80px" height="80px" viewBox="0 0 80 80" enable-background="new 0 0 80 80" xml:space="preserve">
<g>
	<defs>
		<rect id="SVGID_1_" width="80" height="80"/>
	</defs>
	<clipPath id="SVGID_2_">
		<use xlink:href="#SVGID_1_"  overflow="visible"/>
	</clipPath>
	<path clip-path="url(#SVGID_2_)" fill="#F8AF00" d="M40,80c22.091,0,40-17.909,40-40S62.091,0,40,0S0,17.909,0,40S17.909,80,40,80"
		/>
</g>
<g>
	<defs>
		<circle id="SVGID_3_" cx="40" cy="40" r="40"/>
	</defs>
	<clipPath id="SVGID_4_">
		<use xlink:href="#SVGID_3_"  overflow="visible"/>
	</clipPath>
	<path clip-path="url(#SVGID_4_)" fill="#FFFFFF" d="M53.334,20.716l1.807,8.652l-3.301-0.024L53.334,20.716z M58.779,35.682
		l-3.782-17.279l-3.014,0.12l-3.518,17.159l2.241,0.072l1.035-5.326l3.64,0.073l1.108,5.181H58.779z M42.683,19.825
		c0.112,0,0.253,0.004,0.421,0.012c0.169,0.008,0.338,0.016,0.506,0.024c0.169,0.008,0.326,0.016,0.471,0.024
		s0.257,0.02,0.338,0.036c0.159,0.016,0.301,0.073,0.421,0.169c0.121,0.096,0.196,0.346,0.229,0.747v0.53
		c0,0.274-0.004,0.599-0.012,0.976c-0.008,0.378-0.021,0.78-0.036,1.205c-0.016,0.426-0.032,0.831-0.048,1.217
		c-0.016,0.386-0.032,0.731-0.048,1.036c-0.017,0.306-0.033,0.515-0.048,0.627c-0.161,1.012-0.556,1.775-1.182,2.289
		c-0.306,0.257-0.731,0.402-1.277,0.434L42.683,19.825z M43.947,30.079c0.057-0.008,0.108-0.028,0.156-0.06
		c0.514-0.177,0.988-0.498,1.422-0.964c0.435-0.466,0.795-1.037,1.085-1.711c0.16-0.37,0.297-0.86,0.409-1.47
		c0.113-0.611,0.201-1.233,0.265-1.868c0.064-0.635,0.102-1.225,0.109-1.771s-0.004-0.948-0.036-1.205
		c-0.097-0.755-0.313-1.35-0.65-1.784c-0.338-0.433-0.764-0.682-1.277-0.747c-0.193-0.015-0.551-0.044-1.073-0.084
		c-0.521-0.04-1.056-0.076-1.602-0.108c-0.547-0.032-1.036-0.061-1.471-0.085c-0.434-0.024-0.675-0.036-0.723-0.036l-0.241-0.024
		L39.767,35.73l2.458,0.313l0.144-5.422l2.458,4.82l2.29,0.12L46.852,35.2c-0.033-0.048-0.157-0.253-0.374-0.615
		c-0.217-0.361-0.482-0.795-0.795-1.301c-0.313-0.506-0.639-1.044-0.976-1.615c-0.339-0.57-0.644-1.088-0.916-1.554
		C43.839,30.099,43.891,30.087,43.947,30.079 M33.477,20.716l1.807,8.652l-3.301-0.024L33.477,20.716z M38.922,35.682L35.14,18.403
		l-3.013,0.12l-3.518,17.159l2.241,0.072l1.036-5.326l3.639,0.073l1.109,5.181H38.922z M25.32,21.102
		c0.024,0.386,0.04,0.831,0.048,1.338c0.008,0.506,0.008,1.04,0,1.602c-0.008,0.563-0.016,1.085-0.024,1.567
		c-0.008,0.481-0.016,0.887-0.024,1.216c-0.008,0.33-0.012,0.519-0.012,0.567c-0.016,0.144-0.024,0.281-0.024,0.409
		c0,0.129-0.017,0.254-0.049,0.374c-0.032,0.121-0.092,0.233-0.18,0.337c-0.089,0.105-0.221,0.197-0.398,0.278
		c-0.161,0.064-0.353,0.112-0.578,0.144c-0.225,0.033-0.474,0.065-0.747,0.097v-0.94v-1.302v-1.53v-1.602v-3.953
		c0.08-0.015,0.212-0.032,0.397-0.048s0.374-0.004,0.567,0.036c0.192,0.041,0.373,0.109,0.542,0.205
		c0.169,0.097,0.293,0.241,0.373,0.434C25.26,20.46,25.295,20.716,25.32,21.102 M26.584,29.633c0.177-0.177,0.313-0.369,0.41-0.578
		c0.096-0.209,0.16-0.41,0.192-0.603c0.032-0.193,0.049-0.329,0.049-0.41c0-0.048,0.008-0.236,0.024-0.566
		c0.016-0.329,0.032-0.727,0.048-1.193c0.016-0.466,0.032-0.976,0.048-1.53c0.016-0.554,0.028-1.092,0.036-1.615
		c0.008-0.521,0.008-0.996,0-1.421c-0.008-0.426-0.028-0.743-0.06-0.952c-0.096-0.643-0.237-1.145-0.422-1.507
		c-0.185-0.361-0.51-0.558-0.976-0.59c-0.241-0.032-0.618-0.052-1.132-0.06c-0.515-0.008-1.029-0.02-1.543-0.036
		c-0.61-0.016-1.269-0.024-1.976-0.024v17.278c0.129,0.032,0.309,0.049,0.542,0.049h0.711c0.29,0,0.587-0.009,0.892-0.025
		c-0.016-0.899-0.032-1.735-0.048-2.506c-0.016-0.658-0.024-1.289-0.024-1.892v-1.217c0.449-0.032,0.819-0.06,1.108-0.084
		c0.289-0.024,0.57-0.048,0.844-0.072c0.273-0.024,0.466-0.052,0.578-0.085C26.175,29.93,26.408,29.81,26.584,29.633"/>
	<path clip-path="url(#SVGID_4_)" fill="#FFFFFF" d="M53.756,44.165l0.119-1.543l-5.976-0.241L47.272,59.9l5.712,0.048v-1.711
		l-3.133,0.024l0.096-4.337l2.001,0.072v-1.446l-1.977-0.072l0.192-8.411L53.756,44.165z M43.394,42.381l-0.024,0.241
		c0,0.017-0.027,0.226-0.085,0.627c-0.056,0.401-0.124,0.924-0.204,1.565c-0.081,0.644-0.173,1.378-0.277,2.205
		c-0.104,0.828-0.217,1.684-0.337,2.567s-0.237,1.763-0.35,2.639c-0.113,0.876-0.221,1.679-0.326,2.41
		c-0.104,0.73-0.196,1.356-0.276,1.879c-0.08,0.523-0.138,0.872-0.169,1.049c-0.112,0.53-0.266,0.855-0.457,0.977
		c-0.193,0.119-0.378,0.18-0.556,0.18c-0.08,0-0.165-0.003-0.253-0.012s-0.173-0.021-0.253-0.036
		c-0.225-0.032-0.349-0.226-0.373-0.578c-0.024-0.354-0.021-0.763,0.012-1.229c0.016-0.111,0.048-0.405,0.096-0.88
		c0.048-0.474,0.109-1.052,0.181-1.734c0.072-0.684,0.152-1.446,0.241-2.289c0.088-0.845,0.177-1.699,0.265-2.567
		c0.088-0.867,0.178-1.707,0.266-2.518c0.088-0.812,0.169-1.538,0.241-2.182c0.071-0.642,0.128-1.161,0.169-1.554
		c0.04-0.394,0.06-0.599,0.06-0.615l0.024-0.289l-2.604-0.023l-0.024,0.24c-0.016,0.08-0.052,0.454-0.108,1.12
		c-0.057,0.667-0.125,1.482-0.205,2.446c-0.081,0.964-0.169,2.017-0.265,3.157c-0.096,1.141-0.185,2.238-0.265,3.29
		c-0.081,1.052-0.149,1.983-0.205,2.795c-0.056,0.812-0.084,1.378-0.084,1.699c0,0.627,0.04,1.137,0.12,1.529
		c0.08,0.395,0.185,0.711,0.313,0.952c0.129,0.241,0.266,0.418,0.41,0.53c0.145,0.113,0.281,0.185,0.41,0.217
		c0.289,0.081,0.683,0.121,1.181,0.121c0.192,0,0.396-0.004,0.614-0.012c0.217-0.008,0.453-0.021,0.711-0.036
		c0.594-0.033,1.116-0.314,1.566-0.844c0.449-0.53,0.779-1.245,0.988-2.146c0.048-0.176,0.116-0.509,0.204-1
		c0.089-0.49,0.192-1.08,0.313-1.771c0.12-0.69,0.249-1.45,0.386-2.277c0.137-0.828,0.276-1.667,0.422-2.519
		c0.145-0.852,0.285-1.675,0.422-2.471c0.136-0.795,0.257-1.514,0.36-2.156c0.104-0.643,0.189-1.169,0.254-1.578
		c0.063-0.41,0.104-0.647,0.12-0.711l0.049-0.289L43.394,42.381z M31.875,54.068l-2.097,0.146l1.663,4.169
		c-0.161,0.016-0.313,0.023-0.458,0.023h-0.409c-0.29,0-0.543-0.052-0.76-0.156c-0.216-0.104-0.397-0.232-0.542-0.386
		c-0.144-0.152-0.257-0.32-0.337-0.506c-0.081-0.185-0.129-0.357-0.145-0.518c-0.016-0.113-0.032-0.442-0.048-0.988
		c-0.016-0.546-0.028-1.205-0.036-1.976c-0.008-0.772-0.012-1.607-0.012-2.508v-2.565v-2.157v-1.277
		c0-0.257,0.056-0.506,0.169-0.746c0.112-0.241,0.265-0.45,0.457-0.628c0.193-0.177,0.422-0.32,0.687-0.434
		c0.265-0.112,0.55-0.168,0.856-0.168c0.626,0,1.092,0.112,1.398,0.337c0.305,0.226,0.521,0.53,0.65,0.916
		c0.032,0.128,0.08,0.506,0.145,1.132c0.064,0.627,0.124,1.378,0.181,2.254c0.056,0.875,0.112,1.815,0.168,2.819
		c0.056,1.004,0.1,1.952,0.133,2.844c0.032,0.892,0.052,1.663,0.06,2.313c0.008,0.65-0.004,1.064-0.036,1.241
		c-0.048,0.209-0.137,0.378-0.265,0.506L31.875,54.068z M35.309,44.478c-0.024-0.289-0.084-0.554-0.181-0.795
		c-0.096-0.241-0.253-0.466-0.47-0.675c-0.217-0.209-0.534-0.401-0.952-0.578c-0.192-0.081-0.562-0.121-1.108-0.121
		c-0.546,0-1.121,0.024-1.723,0.072c-0.603,0.049-1.169,0.117-1.699,0.205c-0.53,0.089-0.892,0.181-1.085,0.276
		c-0.192,0.098-0.393,0.25-0.602,0.458c-0.209,0.209-0.406,0.482-0.59,0.82c-0.185,0.337-0.342,0.747-0.47,1.229
		c-0.129,0.482-0.217,1.045-0.265,1.688c-0.033,0.433-0.057,0.972-0.073,1.614s-0.024,1.338-0.024,2.085v2.265
		c0,0.763,0.008,1.47,0.024,2.121c0.016,0.65,0.04,1.217,0.073,1.699c0.032,0.481,0.072,0.811,0.12,0.987
		c0.08,0.241,0.229,0.498,0.446,0.771c0.217,0.273,0.498,0.526,0.843,0.759c0.346,0.233,0.759,0.418,1.241,0.555
		s1.02,0.181,1.615,0.133c0.273-0.033,0.542-0.058,0.807-0.073s0.534-0.04,0.808-0.072l0.795,2l2-0.168l-0.819-2.241
		c0.369-0.145,0.69-0.342,0.964-0.591c0.273-0.249,0.458-0.582,0.554-1c0.08-0.305,0.136-0.795,0.169-1.47
		c0.032-0.675,0.048-1.442,0.048-2.301c0-0.86-0.012-1.761-0.036-2.7s-0.053-1.823-0.085-2.65c-0.032-0.828-0.068-1.546-0.108-2.156
		c-0.04-0.611-0.077-1.021-0.109-1.229C35.368,45.072,35.333,44.767,35.309,44.478"/>
	<path clip-path="url(#SVGID_4_)" fill="#FFFFFF" d="M56.202,38.263l-1.926-0.88c-1.926,1.791-2.787,2.294-5.32,3.866l1.165,0.439
		C53.314,40.242,53.567,40.242,56.202,38.263"/>
</g>
</svg>
