<?xml version="1.0" encoding="utf-8"?>
<!-- Generator: Adobe Illustrator 15.1.0, SVG Export Plug-In . SVG Version: 6.00 Build 0)  -->
<!DOCTYPE svg PUBLIC "-//W3C//DTD SVG 1.1//EN" "http://www.w3.org/Graphics/SVG/1.1/DTD/svg11.dtd">
<svg version="1.1" id="Capa_1" xmlns="http://www.w3.org/2000/svg" xmlns:xlink="http://www.w3.org/1999/xlink" x="0px" y="0px"
	 width="80px" height="80px" viewBox="0 0 80 80" enable-background="new 0 0 80 80" xml:space="preserve">
<g>
	<defs>
		<rect id="SVGID_1_" width="80" height="80"/>
	</defs>
	<clipPath id="SVGID_2_">
		<use xlink:href="#SVGID_1_"  overflow="visible"/>
	</clipPath>
	<path clip-path="url(#SVGID_2_)" fill="#ABCF83" d="M40,80c22.092,0,40-17.909,40-40C80,17.908,62.092,0,40,0
		S0.001,17.908,0.001,40C0.001,62.091,17.908,80,40,80"/>
</g>
<g>
	<defs>
		<circle id="SVGID_3_" cx="40" cy="40" r="40"/>
	</defs>
	<clipPath id="SVGID_4_">
		<use xlink:href="#SVGID_3_"  overflow="visible"/>
	</clipPath>
	<path clip-path="url(#SVGID_4_)" fill="#FFFFFF" d="M47.371,19.809c0.112,0,0.253,0.004,0.422,0.012
		c0.169,0.008,0.337,0.017,0.505,0.024c0.169,0.007,0.326,0.016,0.47,0.024c0.146,0.008,0.257,0.02,0.338,0.036
		c0.16,0.016,0.3,0.072,0.42,0.168c0.121,0.096,0.197,0.346,0.229,0.747v0.53c0,0.274-0.004,0.598-0.012,0.975
		c-0.009,0.377-0.021,0.779-0.036,1.204c-0.017,0.426-0.032,0.831-0.047,1.216c-0.018,0.386-0.034,0.731-0.05,1.036
		c-0.017,0.306-0.031,0.515-0.049,0.626c-0.16,1.012-0.554,1.774-1.179,2.288c-0.306,0.257-0.731,0.401-1.277,0.434L47.371,19.809z
		 M48.636,30.055c0.056-0.008,0.108-0.028,0.156-0.06c0.513-0.177,0.986-0.498,1.421-0.963c0.433-0.466,0.794-1.036,1.084-1.71
		c0.16-0.369,0.296-0.859,0.409-1.468c0.11-0.611,0.2-1.232,0.264-1.867c0.064-0.634,0.1-1.224,0.11-1.77
		c0.007-0.545-0.004-0.947-0.037-1.204c-0.098-0.754-0.314-1.349-0.65-1.783c-0.336-0.433-0.763-0.681-1.276-0.746
		c-0.192-0.015-0.551-0.044-1.071-0.084c-0.522-0.04-1.057-0.076-1.602-0.108c-0.547-0.032-1.036-0.061-1.469-0.085
		c-0.433-0.024-0.674-0.036-0.722-0.036l-0.241-0.023l-0.555,17.554l2.458,0.313l0.143-5.418l2.456,4.816l2.288,0.12l-0.264-0.362
		c-0.034-0.047-0.157-0.252-0.374-0.614c-0.218-0.361-0.481-0.794-0.794-1.3c-0.314-0.506-0.639-1.043-0.977-1.614
		c-0.337-0.569-0.642-1.087-0.914-1.553C48.526,30.075,48.579,30.063,48.636,30.055 M36.499,34.727
		c-0.329-0.201-0.533-0.438-0.613-0.71c-0.033-0.096-0.041-0.462-0.024-1.095c0.015-0.634,0.036-1.409,0.061-2.324
		c0.023-0.915,0.06-1.902,0.107-2.962c0.049-1.06,0.097-2.059,0.145-2.998c0.049-0.939,0.097-1.75,0.145-2.433
		c0.049-0.682,0.088-1.111,0.121-1.288c0.048-0.256,0.116-0.458,0.204-0.602c0.088-0.145,0.2-0.252,0.337-0.325
		c0.137-0.073,0.306-0.121,0.506-0.145c0.201-0.024,0.438-0.036,0.71-0.036c0.562,0,0.968,0.12,1.217,0.361
		c0.248,0.241,0.397,0.523,0.445,0.843c0.016,0.112,0.032,0.466,0.049,1.059c0.015,0.595,0.035,1.312,0.059,2.155
		c0.024,0.842,0.05,1.754,0.073,2.733c0.024,0.979,0.045,1.902,0.061,2.769c0.016,0.867,0.035,1.618,0.06,2.252
		c0.024,0.635,0.043,1.039,0.061,1.216c0.016,0.256-0.036,0.493-0.156,0.71c-0.121,0.217-0.289,0.409-0.506,0.577
		c-0.217,0.169-0.47,0.301-0.759,0.397s-0.586,0.144-0.891,0.144C37.298,35.027,36.828,34.927,36.499,34.727 M41.904,19.616
		c-0.224-0.256-0.517-0.485-0.878-0.686c-0.361-0.2-0.78-0.361-1.252-0.482c-0.475-0.12-1-0.156-1.578-0.107
		c-0.577,0.047-1.116,0.111-1.613,0.192c-0.497,0.08-0.943,0.205-1.336,0.373c-0.394,0.169-0.727,0.394-0.999,0.674
		c-0.272,0.281-0.466,0.638-0.578,1.072c-0.064,0.289-0.12,0.77-0.168,1.444c-0.049,0.675-0.09,1.441-0.121,2.301
		c-0.032,0.858-0.057,1.757-0.072,2.696c-0.016,0.939-0.028,1.822-0.036,2.649c-0.008,0.827-0.008,1.545,0,2.155
		s0.013,1.012,0.013,1.204c0.031,0.338,0.071,0.639,0.119,0.903c0.049,0.265,0.134,0.506,0.253,0.723
		c0.121,0.217,0.298,0.421,0.53,0.614c0.232,0.192,0.558,0.369,0.976,0.529c0.191,0.08,0.554,0.12,1.083,0.12s1.092-0.02,1.686-0.06
		s1.152-0.101,1.674-0.181c0.522-0.08,0.878-0.169,1.071-0.265c0.192-0.095,0.406-0.256,0.639-0.481
		c0.233-0.225,0.458-0.518,0.674-0.878c0.218-0.362,0.409-0.792,0.578-1.289c0.169-0.498,0.276-1.06,0.325-1.686
		c0.031-0.417,0.044-0.958,0.035-1.625c-0.008-0.667-0.031-1.38-0.071-2.143s-0.085-1.541-0.132-2.336
		c-0.049-0.794-0.101-1.521-0.157-2.18c-0.056-0.657-0.107-1.215-0.157-1.673c-0.048-0.457-0.079-0.734-0.096-0.831
		C42.267,20.122,42.13,19.873,41.904,19.616 M29.998,21.085c0.024,0.385,0.04,0.83,0.048,1.337c0.008,0.505,0.008,1.039,0,1.601
		c-0.008,0.562-0.016,1.084-0.023,1.565c-0.009,0.48-0.017,0.887-0.024,1.215c-0.008,0.33-0.012,0.519-0.012,0.567
		c-0.017,0.144-0.024,0.28-0.024,0.408c0,0.128-0.017,0.254-0.048,0.374c-0.033,0.121-0.093,0.232-0.181,0.336
		c-0.089,0.105-0.221,0.197-0.397,0.278c-0.161,0.064-0.353,0.112-0.578,0.144c-0.225,0.033-0.474,0.065-0.746,0.097v-0.939v-1.301
		v-1.529v-1.601v-3.949c0.08-0.015,0.212-0.032,0.396-0.048c0.186-0.016,0.374-0.004,0.566,0.036
		c0.192,0.041,0.373,0.108,0.542,0.205c0.169,0.096,0.293,0.24,0.372,0.434C29.938,20.443,29.974,20.699,29.998,21.085
		 M31.262,29.609c0.178-0.177,0.312-0.369,0.41-0.578c0.096-0.209,0.16-0.409,0.192-0.603c0.032-0.193,0.049-0.329,0.049-0.41
		c0-0.048,0.008-0.236,0.024-0.565c0.016-0.329,0.031-0.727,0.047-1.193c0.017-0.465,0.032-0.975,0.048-1.528
		s0.028-1.092,0.036-1.614c0.008-0.521,0.008-0.995,0-1.42c-0.008-0.425-0.027-0.742-0.06-0.952
		c-0.096-0.642-0.237-1.144-0.422-1.505c-0.185-0.361-0.51-0.558-0.975-0.589c-0.241-0.032-0.618-0.052-1.132-0.06
		c-0.515-0.008-1.028-0.021-1.542-0.036c-0.609-0.016-1.268-0.024-1.974-0.024v17.264c0.129,0.033,0.309,0.05,0.541,0.05h0.711
		c0.289,0,0.586-0.01,0.892-0.025c-0.017-0.899-0.032-1.734-0.049-2.504c-0.016-0.657-0.023-1.288-0.023-1.891v-1.216
		c0.448-0.032,0.818-0.06,1.107-0.084c0.288-0.024,0.569-0.048,0.843-0.072c0.272-0.024,0.466-0.052,0.577-0.085
		C30.853,29.906,31.086,29.787,31.262,29.609"/>
	<path clip-path="url(#SVGID_4_)" fill="#FFFFFF" d="M52.849,44.13l0.12-1.542l-5.97-0.241l-0.628,17.507l5.709,0.048v-1.71
		l-3.132,0.024l0.097-4.334l1.999,0.072V52.51l-1.976-0.072l0.193-8.404L52.849,44.13z M42.495,42.347l-0.023,0.241
		c0,0.018-0.028,0.227-0.084,0.626c-0.058,0.402-0.125,0.924-0.205,1.565c-0.081,0.642-0.172,1.377-0.278,2.203
		c-0.104,0.828-0.215,1.683-0.336,2.564c-0.12,0.885-0.237,1.763-0.349,2.638c-0.113,0.875-0.222,1.677-0.326,2.408
		c-0.104,0.729-0.197,1.355-0.277,1.878s-0.137,0.871-0.169,1.048c-0.11,0.529-0.264,0.854-0.456,0.975
		c-0.193,0.12-0.378,0.181-0.555,0.181c-0.079,0-0.165-0.004-0.253-0.013c-0.088-0.008-0.173-0.02-0.252-0.037
		c-0.226-0.03-0.349-0.223-0.373-0.576s-0.021-0.763,0.012-1.229c0.016-0.111,0.049-0.405,0.096-0.879
		c0.048-0.474,0.109-1.051,0.181-1.733c0.072-0.683,0.152-1.445,0.241-2.287c0.088-0.844,0.177-1.697,0.265-2.564
		s0.177-1.706,0.265-2.517s0.17-1.537,0.241-2.179c0.072-0.643,0.128-1.161,0.169-1.553c0.04-0.395,0.061-0.6,0.061-0.615
		l0.023-0.289l-2.602-0.024l-0.023,0.241c-0.017,0.08-0.052,0.454-0.108,1.119c-0.057,0.667-0.124,1.481-0.204,2.445
		c-0.081,0.962-0.169,2.014-0.266,3.154c-0.096,1.14-0.185,2.235-0.265,3.286c-0.08,1.053-0.148,1.982-0.204,2.794
		c-0.057,0.811-0.084,1.376-0.084,1.697c0,0.626,0.04,1.136,0.12,1.528c0.079,0.395,0.184,0.71,0.312,0.951s0.266,0.418,0.409,0.53
		c0.145,0.111,0.281,0.184,0.41,0.217c0.288,0.081,0.683,0.12,1.18,0.12c0.192,0,0.396-0.004,0.613-0.013
		c0.217-0.008,0.454-0.02,0.711-0.034c0.593-0.034,1.116-0.314,1.565-0.845c0.449-0.528,0.778-1.244,0.987-2.143
		c0.049-0.176,0.116-0.509,0.204-0.999c0.089-0.49,0.192-1.079,0.314-1.771c0.119-0.688,0.248-1.447,0.384-2.274
		c0.137-0.828,0.277-1.665,0.422-2.518c0.146-0.85,0.285-1.673,0.421-2.468c0.137-0.794,0.258-1.512,0.361-2.155
		c0.104-0.642,0.188-1.167,0.253-1.577s0.105-0.646,0.121-0.711l0.047-0.288L42.495,42.347z M30.985,54.026L28.89,54.17l1.662,4.166
		c-0.161,0.017-0.312,0.024-0.458,0.024h-0.408c-0.29,0-0.543-0.052-0.76-0.157c-0.216-0.103-0.396-0.231-0.541-0.385
		c-0.145-0.152-0.257-0.32-0.337-0.505c-0.081-0.186-0.129-0.358-0.146-0.519c-0.016-0.111-0.032-0.441-0.048-0.986
		c-0.016-0.546-0.028-1.204-0.035-1.975c-0.009-0.771-0.013-1.604-0.013-2.505v-2.563V46.61v-1.277c0-0.256,0.056-0.505,0.169-0.745
		c0.112-0.241,0.265-0.45,0.457-0.627c0.192-0.178,0.421-0.321,0.686-0.434c0.266-0.111,0.551-0.168,0.855-0.168
		c0.626,0,1.092,0.111,1.397,0.337c0.305,0.225,0.521,0.529,0.649,0.915c0.032,0.128,0.08,0.505,0.145,1.132
		c0.064,0.626,0.124,1.376,0.181,2.251s0.112,1.814,0.168,2.817c0.057,1.003,0.101,1.95,0.134,2.842
		c0.031,0.89,0.052,1.662,0.06,2.311c0.008,0.651-0.004,1.064-0.036,1.24c-0.048,0.209-0.137,0.378-0.265,0.506L30.985,54.026z
		 M34.417,44.443c-0.024-0.29-0.084-0.555-0.182-0.795c-0.096-0.24-0.252-0.466-0.47-0.675c-0.216-0.21-0.533-0.4-0.95-0.577
		c-0.192-0.081-0.562-0.121-1.107-0.121s-1.12,0.023-1.722,0.071c-0.603,0.05-1.168,0.117-1.698,0.205
		c-0.529,0.089-0.892,0.182-1.084,0.276c-0.191,0.097-0.393,0.25-0.602,0.458c-0.209,0.209-0.405,0.482-0.589,0.82
		c-0.186,0.337-0.342,0.746-0.47,1.227c-0.129,0.482-0.218,1.044-0.265,1.687c-0.033,0.433-0.058,0.971-0.073,1.611
		c-0.017,0.645-0.024,1.338-0.024,2.084v2.264c0,0.763,0.008,1.469,0.024,2.119c0.016,0.65,0.04,1.217,0.073,1.697
		c0.031,0.482,0.071,0.811,0.119,0.988c0.08,0.241,0.229,0.497,0.446,0.77c0.216,0.273,0.497,0.525,0.842,0.759
		c0.346,0.232,0.759,0.418,1.24,0.554c0.481,0.137,1.02,0.182,1.613,0.133c0.273-0.032,0.542-0.057,0.807-0.072
		c0.266-0.017,0.534-0.04,0.808-0.072l0.794,1.999l1.999-0.168l-0.818-2.24c0.369-0.145,0.689-0.341,0.963-0.591
		c0.272-0.248,0.457-0.581,0.554-0.998c0.08-0.305,0.136-0.795,0.169-1.469c0.031-0.676,0.048-1.441,0.048-2.301
		c0-0.858-0.012-1.758-0.036-2.696c-0.023-0.938-0.053-1.822-0.085-2.648c-0.031-0.828-0.067-1.545-0.107-2.156
		c-0.04-0.609-0.077-1.019-0.109-1.227C34.477,45.036,34.44,44.732,34.417,44.443"/>
	<path clip-path="url(#SVGID_4_)" fill="#FFFFFF" d="M54.818,38.375l-1.925-0.879c-1.924,1.79-2.786,2.293-5.315,3.863l1.164,0.44
		C51.933,40.354,52.185,40.354,54.818,38.375"/>
</g>
</svg>
