<?xml version="1.0" encoding="utf-8"?>
<!-- Generator: Adobe Illustrator 15.1.0, SVG Export Plug-In . SVG Version: 6.00 Build 0)  -->
<!DOCTYPE svg PUBLIC "-//W3C//DTD SVG 1.1//EN" "http://www.w3.org/Graphics/SVG/1.1/DTD/svg11.dtd">
<svg version="1.1" id="Capa_1" xmlns="http://www.w3.org/2000/svg" xmlns:xlink="http://www.w3.org/1999/xlink" x="0px" y="0px"
	 width="80px" height="80px" viewBox="0 0 80 80" enable-background="new 0 0 80 80" xml:space="preserve">
<g>
	<defs>
		<rect id="SVGID_1_" width="80" height="80"/>
	</defs>
	<clipPath id="SVGID_2_">
		<use xlink:href="#SVGID_1_"  overflow="visible"/>
	</clipPath>
	<path clip-path="url(#SVGID_2_)" fill="#E95160" d="M40,80c22.091,0,40-17.909,40-40S62.091,0,40,0S0,17.909,0,40S17.909,80,40,80"
		/>
</g>
<g>
	<defs>
		<circle id="SVGID_3_" cx="40" cy="40" r="40"/>
	</defs>
	<clipPath id="SVGID_4_">
		<use xlink:href="#SVGID_3_"  overflow="visible"/>
	</clipPath>
	<path clip-path="url(#SVGID_4_)" fill="#FFFFFF" d="M62.615,35.637l1.446-0.457c-0.209-0.627-0.474-1.173-0.795-1.639
		c-0.272-0.402-0.626-0.759-1.06-1.073c-0.435-0.313-0.956-0.453-1.567-0.421c-0.61,0.032-1.136,0.201-1.578,0.506
		c-0.441,0.305-0.787,0.715-1.036,1.229c-0.25,0.514-0.401,1.125-0.458,1.831c-0.057,0.708-0.004,1.479,0.156,2.314
		c0.177,0.835,0.426,1.747,0.747,2.735c0.322,0.988,0.647,1.924,0.976,2.808c0.33,0.884,0.623,1.659,0.881,2.325
		c0.257,0.667,0.409,1.098,0.458,1.289c0.031,0.177,0.039,0.362,0.023,0.556c-0.016,0.191-0.063,0.364-0.145,0.518
		c-0.08,0.153-0.192,0.269-0.337,0.349c-0.146,0.081-0.338,0.105-0.578,0.072c-0.226-0.032-0.418-0.132-0.579-0.301
		c-0.16-0.168-0.297-0.35-0.409-0.542c-0.129-0.209-0.241-0.45-0.338-0.724l-1.325-0.071c0.08,0.45,0.217,0.884,0.409,1.301
		c0.177,0.354,0.422,0.703,0.736,1.048c0.312,0.346,0.75,0.6,1.312,0.759c0.498,0.146,0.952,0.189,1.361,0.134
		c0.41-0.057,0.76-0.218,1.049-0.482s0.506-0.622,0.649-1.072c0.146-0.45,0.201-0.987,0.17-1.615
		c-0.049-0.627-0.218-1.368-0.507-2.229c-0.289-0.859-0.61-1.723-0.964-2.591c-0.353-0.867-0.694-1.695-1.023-2.482
		c-0.33-0.787-0.542-1.438-0.64-1.952c-0.096-0.498-0.168-0.976-0.217-1.434c-0.048-0.458-0.044-0.879,0.012-1.265
		c0.058-0.386,0.178-0.715,0.362-0.988s0.462-0.466,0.831-0.578c0.37-0.113,0.675-0.068,0.916,0.132
		c0.241,0.201,0.442,0.454,0.604,0.759C62.335,34.738,62.487,35.155,62.615,35.637 M56.013,34.24l0.121-1.543l-5.977-0.241
		L49.53,49.977l5.712,0.048v-1.711l-3.133,0.023L52.206,44l2,0.072v-1.446l-1.977-0.071l0.193-8.412L56.013,34.24z M43.627,34.24
		l0.12-1.543l-5.977-0.241l-0.627,17.521l5.712,0.048v-1.711l-3.133,0.023L39.819,44l2,0.072v-1.446l-1.977-0.071l0.193-8.412
		L43.627,34.24z M33.265,32.456l-0.024,0.241c0,0.017-0.028,0.226-0.085,0.627c-0.056,0.402-0.124,0.924-0.204,1.566
		c-0.081,0.643-0.173,1.378-0.278,2.205c-0.104,0.828-0.216,1.684-0.337,2.567c-0.12,0.884-0.237,1.763-0.349,2.639
		c-0.113,0.876-0.221,1.68-0.326,2.41c-0.104,0.731-0.197,1.357-0.277,1.879c-0.08,0.523-0.137,0.872-0.169,1.05
		c-0.112,0.529-0.265,0.854-0.457,0.976c-0.193,0.12-0.378,0.18-0.555,0.18c-0.08,0-0.165-0.003-0.253-0.012
		c-0.088-0.008-0.173-0.02-0.253-0.036c-0.225-0.032-0.349-0.225-0.373-0.578c-0.024-0.353-0.021-0.763,0.012-1.229
		c0.016-0.112,0.048-0.406,0.096-0.88c0.048-0.475,0.109-1.053,0.181-1.735c0.072-0.683,0.152-1.446,0.241-2.289
		c0.088-0.844,0.176-1.699,0.265-2.567c0.088-0.867,0.177-1.707,0.265-2.518s0.169-1.538,0.241-2.181
		c0.072-0.642,0.128-1.161,0.169-1.554c0.04-0.394,0.06-0.599,0.06-0.615l0.024-0.289l-2.603-0.024l-0.024,0.241
		c-0.016,0.08-0.052,0.454-0.108,1.12c-0.057,0.667-0.125,1.482-0.205,2.446c-0.081,0.964-0.169,2.017-0.265,3.157
		c-0.096,1.141-0.185,2.238-0.265,3.29c-0.081,1.052-0.149,1.984-0.205,2.795c-0.056,0.812-0.084,1.378-0.084,1.699
		c0,0.627,0.04,1.137,0.12,1.53s0.185,0.711,0.313,0.952c0.129,0.24,0.266,0.418,0.41,0.529c0.145,0.113,0.281,0.186,0.41,0.218
		c0.289,0.081,0.682,0.12,1.181,0.12c0.192,0,0.397-0.004,0.614-0.012c0.217-0.008,0.454-0.021,0.711-0.036
		c0.594-0.032,1.117-0.313,1.567-0.844c0.449-0.53,0.779-1.245,0.988-2.145c0.048-0.177,0.116-0.51,0.204-1
		c0.089-0.49,0.193-1.08,0.314-1.771c0.12-0.689,0.249-1.45,0.385-2.277c0.137-0.827,0.277-1.667,0.422-2.519
		c0.145-0.851,0.285-1.674,0.422-2.47c0.136-0.795,0.257-1.514,0.361-2.157c0.105-0.642,0.189-1.168,0.253-1.578
		c0.064-0.41,0.105-0.647,0.121-0.711l0.048-0.289L33.265,32.456z M21.746,44.145l-2.097,0.145l1.663,4.169
		c-0.161,0.017-0.313,0.024-0.458,0.024h-0.409c-0.29,0-0.543-0.052-0.76-0.157c-0.216-0.104-0.397-0.232-0.542-0.385
		c-0.144-0.153-0.257-0.321-0.337-0.506c-0.081-0.186-0.129-0.358-0.145-0.519c-0.016-0.113-0.032-0.441-0.048-0.988
		c-0.016-0.546-0.028-1.204-0.036-1.976s-0.012-1.607-0.012-2.507v-2.566v-2.157v-1.277c0-0.257,0.056-0.506,0.169-0.747
		c0.112-0.241,0.265-0.45,0.457-0.627c0.193-0.177,0.422-0.321,0.687-0.434c0.265-0.112,0.55-0.168,0.856-0.168
		c0.626,0,1.092,0.112,1.398,0.337c0.305,0.225,0.521,0.53,0.65,0.916c0.032,0.128,0.08,0.506,0.145,1.132
		c0.064,0.627,0.124,1.378,0.181,2.254c0.056,0.875,0.112,1.815,0.168,2.818c0.056,1.005,0.1,1.952,0.133,2.845
		c0.032,0.891,0.052,1.663,0.06,2.312c0.008,0.651-0.004,1.065-0.036,1.241c-0.048,0.209-0.137,0.378-0.265,0.506L21.746,44.145z
		 M25.18,34.553c-0.024-0.289-0.084-0.554-0.181-0.795c-0.096-0.241-0.253-0.466-0.47-0.675c-0.217-0.209-0.534-0.401-0.952-0.578
		c-0.192-0.081-0.562-0.121-1.108-0.121s-1.121,0.024-1.723,0.072c-0.603,0.049-1.169,0.117-1.699,0.205
		c-0.53,0.089-0.892,0.181-1.085,0.277c-0.192,0.097-0.393,0.25-0.602,0.458c-0.209,0.209-0.406,0.482-0.59,0.82
		c-0.185,0.337-0.342,0.747-0.47,1.229c-0.129,0.482-0.217,1.044-0.265,1.687c-0.033,0.433-0.057,0.972-0.073,1.614
		c-0.016,0.643-0.024,1.338-0.024,2.085v2.266c0,0.763,0.008,1.47,0.024,2.12c0.016,0.65,0.04,1.218,0.073,1.699
		c0.032,0.482,0.072,0.812,0.12,0.988c0.08,0.241,0.229,0.498,0.446,0.771c0.217,0.273,0.498,0.526,0.843,0.76
		c0.346,0.232,0.759,0.418,1.241,0.554c0.482,0.137,1.02,0.181,1.615,0.133c0.273-0.033,0.542-0.057,0.807-0.073
		c0.265-0.016,0.534-0.04,0.808-0.071l0.795,2l2-0.168l-0.819-2.241c0.369-0.146,0.69-0.342,0.964-0.591
		c0.273-0.249,0.458-0.582,0.554-1c0.08-0.306,0.136-0.795,0.169-1.471c0.032-0.675,0.048-1.441,0.048-2.301
		c0-0.86-0.012-1.76-0.036-2.7c-0.024-0.938-0.053-1.823-0.085-2.65c-0.032-0.828-0.068-1.546-0.108-2.157
		c-0.04-0.611-0.077-1.02-0.109-1.229C25.24,35.148,25.204,34.842,25.18,34.553"/>
	<path clip-path="url(#SVGID_4_)" fill="#FFFFFF" d="M47.764,28.903l-1.926-0.88c-1.926,1.791-2.787,2.294-5.32,3.866l1.165,0.44
		C44.876,30.883,45.129,30.883,47.764,28.903"/>
</g>
</svg>
