<?xml version="1.0" encoding="utf-8"?>
<!-- Generator: Adobe Illustrator 18.0.0, SVG Export Plug-In . SVG Version: 6.00 Build 0)  -->
<!DOCTYPE svg PUBLIC "-//W3C//DTD SVG 1.1//EN" "http://www.w3.org/Graphics/SVG/1.1/DTD/svg11.dtd">
<svg version="1.1" id="standarte1_1_" xmlns="http://www.w3.org/2000/svg" xmlns:xlink="http://www.w3.org/1999/xlink" x="0px"
	 y="0px" viewBox="0 0 480 480" enable-background="new 0 0 480 480" xml:space="preserve">
<g id="Rectangle_2">
	<g>
		<polygon fill-rule="evenodd" clip-rule="evenodd" fill="#ABD0B7" points="240.5,335.4 54.3,436.9 54.3,25 427.2,25 427.2,437 		
			"/>
	</g>
	<g>
		<path fill="#CBE2D3" d="M402.2,50v344.9l-137.8-75l-23.9-13l-23.9,13L79.3,394.8V50H402.2 M452.2,0H29.3v479l211.2-115.2
			L452.2,479V0L452.2,0z"/>
	</g>
</g>
<g id="Ellipse_10_copy">
	<g>
		<path fill-rule="evenodd" clip-rule="evenodd" fill="#DF9683" d="M241,269.2c-50.8,0-92-41.3-92-92s41.3-92,92-92s92,41.3,92,92
			S291.7,269.2,241,269.2z"/>
	</g>
	<g>
		<path fill="#F1D4CD" d="M241,100.1c42.5,0,77,34.6,77,77s-34.6,77-77,77s-77-34.6-77-77S198.5,100.1,241,100.1 M241,70.1
			c-59.1,0-107,47.9-107,107s47.9,107,107,107s107-47.9,107-107S300.1,70.1,241,70.1L241,70.1z"/>
	</g>
</g>
</svg>
