<?xml version="1.0" encoding="utf-8"?>
<!-- Generator: Adobe Illustrator 18.0.0, SVG Export Plug-In . SVG Version: 6.00 Build 0)  -->
<!DOCTYPE svg PUBLIC "-//W3C//DTD SVG 1.1//EN" "http://www.w3.org/Graphics/SVG/1.1/DTD/svg11.dtd">
<svg version="1.1" id="coronita_1_" xmlns="http://www.w3.org/2000/svg" xmlns:xlink="http://www.w3.org/1999/xlink" x="0px"
	 y="0px" viewBox="0 0 480 480" enable-background="new 0 0 480 480" xml:space="preserve">
<g id="Shape_6_copy_2">
	<g>
		<path fill="#BAE426" d="M419,180.6c-21.3,16.7-78.5,64.3-78.5,64.3c0.2-0.2-48-90.9-48-90.9s-16.4-36.2-51.5-36.9c0,0,0,0,0,0
			c-0.2,0-0.3,0-0.5,0c-0.2,0-0.3,0-0.5,0c0,0,0,0,0,0c-35.1,0.7-51.5,36.9-51.5,36.9s-48.2,90.7-48,90.9c0,0-57.2-47.6-78.5-64.3
			c-27.3-20-55.6-3-56.2,25c4,39.4,6.9,73.3,11.6,115.3c4.7,42,49.1,42,49.1,42H240h1h173.5c0,0,44.4,0,49.1-42
			c4.7-42,7.6-75.9,11.6-115.3C474.5,177.5,446.3,160.5,419,180.6z"/>
	</g>
</g>
<g id="Ellipse_8_copy_3">
	<g>
		<circle fill-rule="evenodd" clip-rule="evenodd" fill="#FFFF00" cx="240.8" cy="281.6" r="63.7"/>
	</g>
</g>
</svg>
