<?xml version="1.0" encoding="utf-8"?>
<!-- Generator: Adobe Illustrator 15.1.0, SVG Export Plug-In . SVG Version: 6.00 Build 0)  -->
<!DOCTYPE svg PUBLIC "-//W3C//DTD SVG 1.1//EN" "http://www.w3.org/Graphics/SVG/1.1/DTD/svg11.dtd">
<svg version="1.1" id="Capa_1" xmlns="http://www.w3.org/2000/svg" xmlns:xlink="http://www.w3.org/1999/xlink" x="0px" y="0px"
	 width="175px" height="50px" viewBox="0 0 175 50" enable-background="new 0 0 175 50" xml:space="preserve">
<g>
	<path fill="#94BD0D" d="M32.405,37.053c0,0.002,0,0.004-0.001,0.01h-0.14c-0.404,0.023-0.832,0.025-1.295,0h-9.212v-7.074
		c-4.502,1.527-10.691,2.664-13.735-1.491c-0.457,0.168-1.708,0.629-2.292,0.832c0,0-0.045-0.173-0.113-0.449
		c0.115,0,1.575-0.438,2.246-0.608c-0.039-0.06-0.078-0.115-0.115-0.176c0,0,0.144-0.449,0.387-1.175
		c-1.25-0.168-2.5-0.338-3.75-0.506c0.037-0.224,0.074-0.449,0.112-0.674c1.23,0.342,2.46,0.684,3.689,1.026
		c0.12-0.354,0.259-0.764,0.416-1.209c-0.994-0.688-1.99-1.373-2.985-2.059c0.038-0.186,0.075-0.373,0.113-0.56
		c1.418,1.13,2.247,1.783,2.966,2.353c1.122-3.18,2.979-7.998,4.094-8.518c1.682-0.784,5.829-2.018,5.829-2.018
		s3.922-6.949,4.708-6.837c0.775,0.111,4.074,8.786,3.165,19.83c2.74,0.426,5.699,2.107,5.945,7.297
		c1.277-1.059,3.07-3.342,1.312-7.029c-2.546-5.336-5.757-9.755-2.801-16.25c2.955-6.494,7.704-3.643,5.042,2.353
		c-2.661,5.996-0.22,10.335,0.785,13.227C37.716,30.047,38.742,36.58,32.405,37.053 M18.731,10.499
		c0.261-0.185,0.871,0.849,1.232,1.233c-0.245,0.302-1.68,2.578-1.68,2.578l-1.57,0.447C16.713,14.757,18.469,10.683,18.731,10.499
		 M22.621,0c-12.427,0-22.5,10.074-22.5,22.5c0,12.426,10.074,22.5,22.5,22.5c12.426,0,22.5-10.074,22.5-22.5
		C45.121,10.074,35.046,0,22.621,0"/>
	<path fill="#94BD0D" d="M15.93,17.222c-0.262-0.035-0.524-0.073-0.784-0.111c-2.516,1.636-5.12,5.838-3.812,10.088
		c0.224,0.148,0.449,0.299,0.673,0.447C14.762,27.549,18.935,18.695,15.93,17.222"/>
	<path fill="#505050" d="M103.271,22.272c-0.393-0.379-0.847-0.681-1.365-0.911c-0.52-0.225-1.059-0.34-1.612-0.34
		c-0.583,0-1.127,0.121-1.632,0.363c-0.506,0.237-0.956,0.553-1.348,0.945c-0.393,0.392-0.701,0.849-0.93,1.368
		c-0.227,0.52-0.342,1.043-0.342,1.574c0,0.58,0.115,1.131,0.342,1.649c0.229,0.519,0.537,0.968,0.93,1.345
		c0.392,0.381,0.842,0.686,1.348,0.912c0.505,0.227,1.049,0.34,1.632,0.34c0.556,0,1.093-0.113,1.612-0.34
		c0.519-0.228,0.974-0.531,1.365-0.912c0.393-0.377,0.699-0.826,0.931-1.345c0.226-0.521,0.34-1.069,0.34-1.649
		c0-0.582-0.114-1.133-0.34-1.65C103.973,23.102,103.664,22.652,103.271,22.272"/>
	<path fill="#505050" d="M171.471,17.752c-0.47,0.493-1.031,0.741-1.688,0.741c-0.734-0.025-1.34-0.26-1.805-0.703
		c-0.465-0.441-0.701-1.066-0.701-1.878c0.025-0.656,0.285-1.216,0.779-1.669c0.492-0.456,1.068-0.684,1.727-0.684
		c0.656,0,1.219,0.248,1.688,0.74c0.467,0.494,0.699,1.068,0.699,1.725C172.17,16.683,171.938,17.259,171.471,17.752 M172.17,32.1
		c0,0.682-0.212,1.25-0.645,1.705c-0.433,0.457-1.012,0.709-1.743,0.76c-0.657,0-1.214-0.201-1.671-0.604
		c-0.457-0.405-0.734-0.976-0.834-1.707V21.678c0.05-0.656,0.314-1.198,0.799-1.631c0.48-0.43,1.049-0.657,1.705-0.685
		c0.656,0,1.207,0.242,1.652,0.723c0.438,0.481,0.686,1.063,0.735,1.745L172.17,32.1L172.17,32.1z M164.814,30.127
		c0.502,0.506,0.758,1.104,0.758,1.801s-0.256,1.297-0.758,1.801c-0.506,0.455-1.104,0.703-1.785,0.742
		c-0.686,0.037-1.289-0.209-1.819-0.742l-5.731-5.688v3.869c0,0.657-0.254,1.247-0.758,1.764c-0.503,0.521-1.102,0.779-1.783,0.779
		c-0.656,0-1.25-0.246-1.779-0.74c-0.53-0.493-0.799-1.092-0.799-1.803V12.751c0-0.658,0.254-1.246,0.76-1.764
		c0.505-0.518,1.113-0.779,1.818-0.779c0.709,0,1.312,0.248,1.806,0.74c0.487,0.496,0.735,1.094,0.735,1.803v9.522l5.731-5.729
		c0.505-0.505,1.099-0.75,1.782-0.738c0.681,0.012,1.289,0.258,1.822,0.738c0.502,0.506,0.758,1.105,0.758,1.803
		c0,0.695-0.256,1.297-0.758,1.802l-5.008,5.007L164.814,30.127z M148.966,25.648c0,1.268-0.241,2.447-0.72,3.549
		c-0.029,0.066-0.064,0.129-0.096,0.195c-0.473,1.018-1.092,1.924-1.86,2.707c-0.822,0.834-1.788,1.489-2.901,1.973
		c-1.111,0.477-2.31,0.719-3.6,0.719h-0.004h-0.002c-1.262,0-2.453-0.227-3.564-0.682c-0.996-0.408-1.875-0.971-2.646-1.674
		c-0.086-0.103-0.155-0.211-0.219-0.322c-0.006-0.004-0.013-0.008-0.017-0.014c-0.123-0.123-0.235-0.254-0.347-0.384
		c-0.219-0.381-0.333-0.799-0.324-1.26c0.012-0.696,0.275-1.293,0.788-1.789c0.517-0.446,1.112-0.683,1.798-0.709
		c0.512-0.021,0.979,0.119,1.398,0.418c0.043,0.052,0.09,0.104,0.139,0.155c0.16,0.166,0.332,0.312,0.511,0.443
		c0.693,0.521,1.521,0.805,2.485,0.844c0.583,0,1.126-0.104,1.631-0.321c0.508-0.213,0.956-0.513,1.348-0.892
		c0.393-0.381,0.7-0.828,0.93-1.348c0.223-0.508,0.334-1.057,0.341-1.648c-0.062-1.135-0.47-2.102-1.229-2.896
		c-0.009-0.008-0.015-0.017-0.021-0.023c-0.785-0.811-1.784-1.239-2.999-1.29c-0.583,0-1.125,0.107-1.63,0.322
		c-0.367,0.155-0.704,0.358-1.014,0.601l-0.367,0.329l-3.724,3.323c-1.157,1.059-2.135,1.948-2.135,1.948l-1.781,1.589v-0.039
		l-2.212,1.979c-0.184,0.223-0.379,0.439-0.584,0.648c-0.82,0.834-1.79,1.489-2.902,1.973c-1.112,0.479-2.314,0.719-3.604,0.719
		c-1.265,0-2.453-0.227-3.565-0.682c-1.113-0.455-2.084-1.096-2.92-1.914c-0.837-0.822-1.492-1.791-1.974-2.904
		c-0.479-1.111-0.722-2.326-0.722-3.643c0-1.264,0.233-2.446,0.703-3.546c0.142-0.33,0.304-0.645,0.477-0.95
		c0.402-0.711,0.884-1.358,1.458-1.932c0.819-0.822,1.795-1.48,2.921-1.973c0.232-0.102,0.473-0.189,0.714-0.273
		c0.065-0.022,0.132-0.049,0.198-0.07c0.859-0.277,1.766-0.437,2.71-0.475c1.239,0,2.417,0.241,3.528,0.723
		c1.113,0.48,2.089,1.139,2.923,1.972c0.122,0.122,0.231,0.252,0.347,0.382c0.217,0.381,0.33,0.799,0.322,1.261
		c-0.014,0.696-0.276,1.291-0.788,1.787c-0.515,0.448-1.112,0.686-1.796,0.709c-0.516,0.021-0.979-0.121-1.399-0.417
		c-0.045-0.052-0.09-0.104-0.138-0.154c-0.161-0.167-0.332-0.313-0.512-0.447c-0.694-0.519-1.521-0.801-2.487-0.843
		c-0.582,0-1.124,0.107-1.629,0.322c-0.509,0.215-0.956,0.514-1.351,0.893c-0.39,0.378-0.699,0.828-0.928,1.345
		c-0.226,0.521-0.342,1.082-0.342,1.688c0,0.582,0.115,1.133,0.342,1.649c0.229,0.521,0.538,0.976,0.928,1.367
		c0.395,0.392,0.842,0.701,1.351,0.931c0.505,0.227,1.047,0.34,1.629,0.34s1.133-0.113,1.651-0.34
		c0.354-0.156,0.674-0.353,0.961-0.586c0.136-0.107,0.266-0.222,0.387-0.345c0.13-0.136,5.874-5.366,5.874-5.366l4.175-3.73
		c0.131-0.15,0.26-0.303,0.402-0.446c0.82-0.836,1.787-1.493,2.9-1.972c1.112-0.48,2.312-0.723,3.602-0.723h0.001h0.002h0.012
		c0.257,0,0.513,0.016,0.765,0.037c0.979,0.073,1.908,0.284,2.791,0.646c1.111,0.455,2.086,1.094,2.92,1.916
		c0.836,0.82,1.492,1.789,1.973,2.9c0.48,1.114,0.722,2.329,0.722,3.645c0,0.012-0.002,0.023-0.002,0.039
		C148.964,25.625,148.966,25.637,148.966,25.648 M108.732,28.836c-0.491,1.113-1.155,2.086-1.989,2.92
		c-0.835,0.834-1.81,1.494-2.921,1.973c-1.114,0.48-2.289,0.724-3.527,0.724c-1.215,0-2.378-0.246-3.49-0.74
		c-1.113-0.493-2.094-1.157-2.941-1.991c-0.846-0.834-1.523-1.808-2.028-2.923c-0.505-1.112-0.758-2.284-0.758-3.524V12.562
		c0-0.305,0.073-0.601,0.226-0.893c0.153-0.29,0.342-0.542,0.57-0.759c0.229-0.213,0.484-0.386,0.775-0.513s0.588-0.176,0.895-0.15
		c0.328-0.025,0.645,0.033,0.945,0.17c0.306,0.141,0.576,0.323,0.818,0.55c0.237,0.229,0.422,0.501,0.549,0.816
		c0.125,0.315,0.188,0.639,0.188,0.968v4.361c0.886-0.454,1.804-0.752,2.75-0.893c0.949-0.138,1.892-0.138,2.828,0
		c0.937,0.141,1.844,0.42,2.729,0.836c0.887,0.418,1.707,0.982,2.467,1.69c0.885,0.909,1.55,1.889,1.994,2.938
		c0.438,1.052,0.662,2.245,0.662,3.586C109.475,26.535,109.229,27.725,108.732,28.836 M88.21,17.752
		c-0.467,0.493-1.028,0.741-1.688,0.741c-0.734-0.025-1.334-0.26-1.802-0.703c-0.468-0.441-0.702-1.066-0.702-1.878
		c0.026-0.656,0.285-1.216,0.779-1.669c0.493-0.456,1.066-0.684,1.725-0.684s1.221,0.248,1.688,0.74
		c0.47,0.494,0.703,1.068,0.703,1.725C88.913,16.683,88.68,17.259,88.21,17.752 M88.913,32.1c0,0.682-0.215,1.25-0.646,1.705
		c-0.431,0.457-1.011,0.709-1.746,0.76c-0.658,0-1.214-0.201-1.67-0.604c-0.455-0.405-0.732-0.976-0.834-1.707V21.678
		c0.051-0.656,0.316-1.198,0.797-1.631c0.481-0.43,1.049-0.657,1.707-0.685c0.659,0,1.209,0.242,1.65,0.723
		c0.441,0.481,0.689,1.063,0.74,1.745L88.913,32.1L88.913,32.1z M81.012,21.555l-3.681,10.296c-0.608,1.721-1.485,2.6-3.274,2.6
		c-1.891,0-2.531-0.979-3.14-2.771l-2.059-6.207h-0.067l-2.058,6.207c-0.608,1.793-1.248,2.771-3.139,2.771
		c-1.79,0-2.667-0.879-3.275-2.6l-3.678-10.296c-0.441-1.178-0.744-1.993-0.811-2.934c0-1.386,0.91-2.533,2.667-2.533
		c1.248,0,2.16,0.677,2.498,1.854l2.564,8.542h0.068l2.363-4.58c0.439-1.384,0.944-3.002,2.836-3.002
		c1.89,0,2.397,1.618,2.835,3.002l2.361,4.58h0.069l2.564-8.542c0.338-1.178,1.25-1.854,2.498-1.854
		c1.756,0,2.668,1.147,2.668,2.533C81.753,19.562,81.448,20.377,81.012,21.555 M173.971,18.951c0.596-0.864,0.909-1.858,0.909-2.926
		c0-1.348-0.497-2.586-1.44-3.584c-0.99-1.043-2.254-1.59-3.656-1.59c-1.34,0-2.57,0.485-3.562,1.4
		c-0.43,0.395-0.773,0.846-1.041,1.332c-0.666-0.307-1.385-0.473-2.135-0.486l-0.098-0.002c-1.385,0-2.646,0.53-3.648,1.531
		l-1.111,1.109v-2.984c0-1.423-0.525-2.708-1.522-3.712c-1.015-1.011-2.298-1.539-3.726-1.539c-1.445,0-2.748,0.554-3.764,1.603
		c-0.994,1.017-1.525,2.283-1.525,3.648v3.881c-0.967-0.844-2.06-1.529-3.271-2.027c-1.125-0.459-2.339-0.744-3.609-0.84
		c-0.287-0.024-0.572-0.039-0.852-0.043h-0.016h-0.115c-1.655,0-3.229,0.316-4.676,0.941c-1.436,0.62-2.698,1.48-3.764,2.562
		c-0.152,0.153-0.285,0.305-0.402,0.439l-1.559,1.391c-0.103-0.301-0.234-0.596-0.396-0.882l-0.145-0.257l-0.199-0.22l-0.072-0.085
		c-0.123-0.139-0.247-0.275-0.379-0.406c-1.069-1.07-2.336-1.925-3.758-2.541c-1.453-0.627-3.002-0.943-4.605-0.943h-0.055h-0.053
		c-1.187,0.049-2.343,0.25-3.435,0.604c-0.075,0.023-0.146,0.05-0.218,0.076l-0.045,0.016c-0.264,0.09-0.584,0.206-0.908,0.35
		c-1.426,0.623-2.688,1.478-3.747,2.537c-0.412,0.414-0.792,0.866-1.144,1.348c-0.424-0.625-0.914-1.226-1.467-1.795l-0.046-0.049
		l-0.049-0.043c-0.962-0.897-2.024-1.623-3.158-2.158c-1.129-0.53-2.302-0.889-3.487-1.064c-0.6-0.089-1.207-0.134-1.81-0.134
		c-0.483,0-0.971,0.03-1.458,0.087v-0.744c0-0.673-0.129-1.339-0.383-1.975c-0.273-0.676-0.674-1.271-1.195-1.77
		c-0.468-0.439-0.988-0.792-1.559-1.053c-0.61-0.279-1.26-0.421-1.924-0.421c-0.049,0-0.098,0-0.146,0.003
		c-0.054-0.003-0.108-0.003-0.159-0.003c-0.623,0-1.232,0.127-1.816,0.381c-0.581,0.253-1.106,0.599-1.562,1.03
		c-0.441,0.412-0.816,0.91-1.109,1.472c-0.146,0.282-0.254,0.571-0.34,0.864c-0.63-0.281-1.312-0.43-2.038-0.43
		c-1.339,0-2.572,0.486-3.563,1.401c-0.538,0.498-0.947,1.075-1.226,1.711c-0.754-0.376-1.625-0.583-2.58-0.583
		c-2.465,0-4.417,1.455-5.097,3.799l-0.586,1.95c-0.749-1.44-2.088-2.935-4.645-2.935c-2.56,0-3.9,1.498-4.648,2.934l-0.585-1.949
		c-0.677-2.343-2.629-3.799-5.096-3.799c-3.115,0-5.377,2.203-5.377,5.241v0.096l0.008,0.099c0.094,1.321,0.499,2.411,0.968,3.669
		l3.673,10.28c1.028,2.914,2.988,4.396,5.825,4.396c3.157,0,4.544-1.878,5.232-3.382c0.691,1.513,2.079,3.382,5.231,3.382
		c2.835,0,4.795-1.479,5.829-4.406l1.426-3.985v3.483v0.183l0.024,0.186c0.187,1.369,0.78,2.531,1.718,3.365
		c0.949,0.844,2.15,1.289,3.469,1.289h0.096l0.095-0.006c1.408-0.099,2.627-0.652,3.522-1.603c0.664-0.701,1.097-1.554,1.281-2.498
		c0.147,0.162,0.289,0.33,0.445,0.481c1.077,1.062,2.337,1.914,3.743,2.539c1.456,0.644,3,0.972,4.589,0.972
		c1.602,0,3.146-0.315,4.6-0.943c1.426-0.614,2.691-1.471,3.766-2.547c0.449-0.448,0.854-0.938,1.229-1.455
		c0.453,0.69,0.969,1.332,1.56,1.91c1.085,1.065,2.358,1.905,3.794,2.492c1.432,0.586,2.977,0.883,4.59,0.883
		c1.654,0,3.229-0.315,4.678-0.942c0.68-0.291,1.319-0.64,1.918-1.037v0.045l0.204-0.183c0.589-0.411,1.136-0.875,1.64-1.387
		c0.153-0.154,0.307-0.315,0.451-0.481l1.512-1.349c0.104,0.301,0.234,0.595,0.397,0.881l0.144,0.259l0.199,0.223l0.073,0.082
		c0.054,0.059,0.104,0.117,0.158,0.176c0.08,0.119,0.162,0.232,0.251,0.342l0.134,0.17l0.16,0.145
		c1.019,0.925,2.175,1.656,3.44,2.177c1.433,0.586,2.979,0.883,4.594,0.883c1.66-0.002,3.232-0.317,4.678-0.942
		c1.391-0.599,2.621-1.435,3.669-2.476c0.277,0.595,0.669,1.138,1.181,1.612c1.035,0.959,2.289,1.466,3.627,1.466
		c1.418,0,2.707-0.554,3.725-1.597c0.443-0.453,0.794-0.955,1.047-1.492l1.594,1.58c0.995,0.998,2.242,1.529,3.592,1.529
		c0.096,0,0.192-0.002,0.289-0.008c1.156-0.062,2.237-0.471,3.144-1.18c0.948,0.838,2.146,1.279,3.457,1.279h0.096l0.093-0.006
		c1.406-0.099,2.623-0.65,3.521-1.599c0.906-0.957,1.388-2.192,1.388-3.569V21.831v-0.104l-0.007-0.103
		C174.798,20.647,174.488,19.736,173.971,18.951"/>
</g>
<g>
	<path fill="#505050" d="M145.982,41.389h3.79c1.606,0,2.435,0.995,2.435,2.171c0,0.563-0.204,1.355-1.151,1.799
		c0.563,0.228,1.559,0.624,1.559,2.099c0,1.38-1.02,2.543-2.926,2.543h-3.706V41.389z M147.146,45.035h2.099
		c1.115,0,1.799-0.336,1.799-1.392c0-0.804-0.491-1.26-1.786-1.26h-2.111V45.035z M147.146,49.005h2.482
		c1.212,0,1.823-0.612,1.823-1.571c0-1.212-1.067-1.451-2.015-1.451h-2.291V49.005z"/>
	<path fill="#505050" d="M160.486,50h-6.356v-8.611h6.272v1.031h-5.109v2.639h4.714v1.031h-4.714v2.879h5.193V50z"/>
	<path fill="#505050" d="M161.271,41.389h6.992v1.031h-2.914V50h-1.164v-7.58h-2.914V41.389z"/>
	<path fill="#505050" d="M169.263,47.493L168.363,50h-1.199l3.238-8.611h1.319L174.84,50h-1.271l-0.852-2.507H169.263z
		 M172.297,46.462l-1.271-3.79h-0.023l-1.379,3.79H172.297z"/>
</g>
</svg>
