<?xml version="1.0" encoding="utf-8"?>
<!-- Generator: Adobe Illustrator 15.1.0, SVG Export Plug-In . SVG Version: 6.00 Build 0)  -->
<!DOCTYPE svg PUBLIC "-//W3C//DTD SVG 1.1//EN" "http://www.w3.org/Graphics/SVG/1.1/DTD/svg11.dtd">
<svg version="1.1" id="Capa_1" xmlns="http://www.w3.org/2000/svg" xmlns:xlink="http://www.w3.org/1999/xlink" x="0px" y="0px"
	 width="175px" height="50px" viewBox="0 0 175 50" enable-background="new 0 0 175 50" xml:space="preserve">
<g>
	<path fill="#94BD0D" d="M32.405,39.553c0,0.002,0,0.004-0.001,0.01h-0.14c-0.404,0.023-0.832,0.025-1.295,0h-9.212v-7.074
		c-4.502,1.527-10.691,2.664-13.735-1.492c-0.457,0.168-1.708,0.629-2.292,0.832c0,0-0.045-0.172-0.113-0.449
		c0.115,0,1.575-0.439,2.246-0.609c-0.039-0.059-0.078-0.115-0.115-0.176c0,0,0.144-0.449,0.387-1.174
		c-1.25-0.168-2.5-0.338-3.75-0.506c0.037-0.223,0.074-0.449,0.112-0.674c1.23,0.342,2.46,0.684,3.689,1.027
		c0.12-0.354,0.259-0.764,0.416-1.209C7.608,27.371,6.612,26.686,5.617,26c0.038-0.186,0.075-0.373,0.113-0.56
		c1.418,1.13,2.247,1.783,2.966,2.353c1.122-3.18,2.979-7.998,4.094-8.518c1.682-0.784,5.829-2.018,5.829-2.018
		s3.922-6.949,4.708-6.837c0.775,0.111,4.074,8.786,3.165,19.83c2.74,0.426,5.699,2.107,5.945,7.297
		c1.277-1.059,3.07-3.342,1.312-7.029c-2.546-5.337-5.757-9.756-2.801-16.25c2.955-6.494,7.704-3.643,5.042,2.353
		c-2.661,5.996-0.22,10.335,0.785,13.226C37.716,32.547,38.742,39.08,32.405,39.553 M18.731,12.999
		c0.261-0.185,0.871,0.849,1.232,1.233c-0.245,0.302-1.68,2.578-1.68,2.578l-1.57,0.447C16.713,17.257,18.469,13.183,18.731,12.999
		 M22.621,2.5C10.194,2.5,0.121,12.574,0.121,25c0,12.426,10.074,22.5,22.5,22.5c12.426,0,22.5-10.074,22.5-22.5
		C45.121,12.574,35.046,2.5,22.621,2.5"/>
	<path fill="#94BD0D" d="M15.93,19.722c-0.262-0.035-0.524-0.073-0.784-0.111c-2.516,1.636-5.12,5.838-3.812,10.088
		c0.224,0.148,0.449,0.299,0.673,0.447C14.762,30.049,18.935,21.195,15.93,19.722"/>
	<path fill="#505050" d="M103.271,24.772c-0.392-0.379-0.846-0.681-1.365-0.911c-0.52-0.225-1.058-0.34-1.612-0.34
		c-0.583,0-1.127,0.121-1.632,0.363c-0.506,0.237-0.956,0.553-1.348,0.945c-0.392,0.392-0.701,0.849-0.929,1.368
		c-0.227,0.52-0.342,1.043-0.342,1.574c0,0.58,0.115,1.131,0.342,1.65c0.228,0.518,0.537,0.967,0.929,1.344
		c0.392,0.381,0.842,0.686,1.348,0.912c0.505,0.227,1.049,0.34,1.632,0.34c0.555,0,1.093-0.113,1.612-0.34s0.974-0.531,1.365-0.912
		c0.393-0.377,0.7-0.826,0.931-1.344c0.226-0.52,0.34-1.07,0.34-1.65c0-0.582-0.114-1.133-0.34-1.65
		C103.972,25.602,103.664,25.152,103.271,24.772"/>
	<path fill="#505050" d="M171.471,20.252c-0.47,0.493-1.032,0.741-1.688,0.741c-0.734-0.025-1.339-0.26-1.805-0.703
		c-0.464-0.441-0.7-1.066-0.7-1.878c0.025-0.656,0.284-1.216,0.778-1.669c0.493-0.456,1.069-0.684,1.727-0.684
		c0.656,0,1.219,0.248,1.688,0.74c0.466,0.494,0.699,1.068,0.699,1.725C172.17,19.183,171.937,19.759,171.471,20.252 M172.17,34.6
		c0,0.682-0.212,1.25-0.645,1.705c-0.432,0.457-1.012,0.709-1.743,0.76c-0.657,0-1.214-0.201-1.671-0.605
		c-0.456-0.406-0.734-0.975-0.834-1.707V24.178c0.05-0.656,0.315-1.198,0.799-1.631c0.48-0.43,1.049-0.657,1.706-0.685
		c0.656,0,1.207,0.242,1.651,0.723c0.439,0.481,0.686,1.063,0.736,1.745V34.6z M164.815,32.627c0.502,0.506,0.757,1.104,0.757,1.801
		s-0.255,1.297-0.757,1.801c-0.507,0.455-1.104,0.703-1.785,0.742c-0.686,0.037-1.29-0.209-1.82-0.742l-5.731-5.689v3.869
		c0,0.658-0.254,1.248-0.758,1.764c-0.503,0.52-1.102,0.779-1.783,0.779c-0.657,0-1.25-0.246-1.78-0.74s-0.799-1.092-0.799-1.803
		V15.251c0-0.658,0.255-1.246,0.76-1.764s1.113-0.779,1.819-0.779c0.708,0,1.311,0.248,1.805,0.74
		c0.488,0.496,0.736,1.094,0.736,1.803v9.522l5.731-5.729c0.505-0.505,1.099-0.75,1.782-0.738c0.681,0.012,1.29,0.258,1.823,0.738
		c0.502,0.506,0.757,1.105,0.757,1.803c0,0.695-0.255,1.297-0.757,1.802l-5.009,5.007L164.815,32.627z M148.966,28.148
		c0,1.268-0.241,2.447-0.72,3.549c-0.029,0.066-0.065,0.129-0.096,0.195c-0.472,1.018-1.091,1.924-1.86,2.707
		c-0.822,0.834-1.788,1.49-2.902,1.973c-1.111,0.477-2.309,0.719-3.599,0.719h-0.004h-0.002c-1.262,0-2.453-0.227-3.565-0.682
		c-0.995-0.408-1.874-0.971-2.646-1.674c-0.085-0.102-0.155-0.211-0.219-0.322c-0.006-0.004-0.012-0.008-0.016-0.014
		c-0.123-0.123-0.235-0.254-0.347-0.383c-0.218-0.381-0.333-0.799-0.324-1.26c0.012-0.697,0.276-1.293,0.788-1.789
		c0.516-0.447,1.113-0.682,1.798-0.709c0.512-0.02,0.978,0.119,1.398,0.418c0.044,0.051,0.09,0.105,0.139,0.156
		c0.16,0.166,0.332,0.311,0.511,0.443c0.693,0.52,1.52,0.805,2.485,0.844c0.583,0,1.126-0.105,1.631-0.322
		c0.508-0.213,0.956-0.512,1.348-0.891c0.392-0.381,0.7-0.828,0.929-1.348c0.223-0.508,0.335-1.057,0.341-1.648
		c-0.061-1.135-0.47-2.102-1.229-2.897c-0.009-0.008-0.015-0.017-0.022-0.023c-0.785-0.811-1.784-1.239-2.999-1.29
		c-0.583,0-1.125,0.107-1.63,0.322c-0.367,0.155-0.704,0.358-1.013,0.601l-0.368,0.329l-3.723,3.322
		c-1.158,1.059-2.135,1.949-2.135,1.949l-1.781,1.588v-0.039l-2.212,1.979c-0.184,0.223-0.379,0.439-0.584,0.648
		c-0.82,0.834-1.79,1.49-2.902,1.973c-1.113,0.479-2.315,0.719-3.605,0.719c-1.264,0-2.453-0.227-3.565-0.682
		c-1.114-0.455-2.085-1.096-2.921-1.914c-0.836-0.822-1.492-1.791-1.973-2.904c-0.48-1.111-0.721-2.326-0.721-3.643
		c0-1.264,0.233-2.446,0.702-3.546c0.142-0.33,0.304-0.645,0.477-0.95c0.402-0.711,0.884-1.358,1.458-1.932
		c0.82-0.822,1.795-1.48,2.921-1.973c0.233-0.102,0.473-0.189,0.714-0.273c0.066-0.022,0.132-0.049,0.198-0.07
		c0.86-0.277,1.765-0.437,2.71-0.475c1.239,0,2.417,0.241,3.528,0.723c1.114,0.48,2.089,1.139,2.923,1.972
		c0.122,0.122,0.232,0.252,0.347,0.382c0.217,0.381,0.33,0.799,0.322,1.261c-0.013,0.696-0.276,1.291-0.788,1.787
		c-0.515,0.448-1.112,0.686-1.796,0.709c-0.515,0.021-0.979-0.12-1.399-0.417c-0.045-0.052-0.09-0.104-0.138-0.154
		c-0.161-0.167-0.332-0.313-0.512-0.447c-0.694-0.519-1.521-0.801-2.487-0.843c-0.582,0-1.124,0.107-1.629,0.322
		c-0.508,0.215-0.956,0.514-1.35,0.893c-0.39,0.378-0.7,0.828-0.928,1.345c-0.226,0.52-0.342,1.082-0.342,1.688
		c0,0.582,0.116,1.133,0.342,1.65c0.228,0.52,0.538,0.975,0.928,1.367c0.394,0.391,0.842,0.701,1.35,0.93
		c0.505,0.227,1.047,0.34,1.629,0.34s1.133-0.113,1.651-0.34c0.355-0.156,0.674-0.352,0.962-0.586
		c0.135-0.107,0.265-0.221,0.386-0.344c0.13-0.135,5.874-5.366,5.874-5.366l4.175-3.73c0.131-0.15,0.26-0.303,0.402-0.446
		c0.821-0.836,1.787-1.493,2.9-1.972c1.113-0.48,2.312-0.723,3.602-0.723h0.001h0.002h0.012c0.257,0,0.512,0.016,0.765,0.037
		c0.978,0.073,1.907,0.284,2.79,0.646c1.112,0.455,2.086,1.094,2.92,1.916c0.836,0.82,1.493,1.789,1.973,2.9
		c0.48,1.114,0.722,2.329,0.722,3.645c0,0.012-0.002,0.023-0.002,0.039C148.964,28.125,148.966,28.137,148.966,28.148
		 M108.733,31.336c-0.492,1.113-1.156,2.086-1.99,2.92c-0.835,0.834-1.81,1.494-2.921,1.973c-1.114,0.48-2.289,0.723-3.527,0.723
		c-1.215,0-2.378-0.246-3.491-0.74s-2.093-1.158-2.94-1.992c-0.847-0.834-1.524-1.807-2.029-2.922
		c-0.505-1.113-0.758-2.285-0.758-3.525V15.062c0-0.305,0.074-0.601,0.226-0.893c0.153-0.29,0.342-0.542,0.57-0.759
		c0.228-0.213,0.485-0.386,0.776-0.513s0.588-0.176,0.894-0.15c0.328-0.025,0.645,0.033,0.946,0.17
		c0.305,0.141,0.576,0.323,0.817,0.55c0.238,0.229,0.423,0.501,0.549,0.816s0.189,0.639,0.189,0.968v4.361
		c0.885-0.454,1.803-0.752,2.75-0.893c0.949-0.138,1.891-0.138,2.828,0c0.936,0.141,1.844,0.42,2.73,0.836
		c0.886,0.418,1.707,0.982,2.466,1.69c0.885,0.909,1.55,1.889,1.994,2.938c0.438,1.052,0.662,2.244,0.662,3.587
		C109.475,29.035,109.229,30.225,108.733,31.336 M88.21,20.252c-0.467,0.493-1.028,0.741-1.688,0.741
		c-0.734-0.025-1.334-0.26-1.802-0.703c-0.468-0.441-0.702-1.066-0.702-1.878c0.026-0.656,0.285-1.216,0.779-1.669
		c0.493-0.456,1.066-0.684,1.725-0.684c0.659,0,1.221,0.248,1.688,0.74c0.469,0.494,0.703,1.068,0.703,1.725
		C88.913,19.183,88.679,19.759,88.21,20.252 M88.913,34.6c0,0.682-0.215,1.25-0.646,1.705c-0.43,0.457-1.01,0.709-1.745,0.76
		c-0.658,0-1.214-0.201-1.67-0.605c-0.455-0.406-0.732-0.975-0.834-1.707V24.178c0.051-0.656,0.316-1.198,0.797-1.631
		c0.481-0.43,1.049-0.657,1.707-0.685c0.659,0,1.209,0.242,1.65,0.723c0.442,0.481,0.69,1.063,0.74,1.745V34.6z M81.012,24.055
		l-3.681,10.296c-0.608,1.721-1.485,2.6-3.274,2.6c-1.891,0-2.531-0.979-3.14-2.771l-2.059-6.207h-0.067l-2.058,6.207
		c-0.608,1.793-1.248,2.771-3.139,2.771c-1.79,0-2.667-0.879-3.275-2.6l-3.678-10.296c-0.441-1.178-0.744-1.993-0.811-2.934
		c0-1.386,0.91-2.533,2.667-2.533c1.248,0,2.16,0.677,2.498,1.854l2.564,8.542h0.068l2.363-4.579
		c0.439-1.384,0.944-3.002,2.836-3.002c1.89,0,2.397,1.618,2.835,3.002l2.361,4.579h0.069l2.564-8.542
		c0.338-1.178,1.25-1.854,2.498-1.854c1.756,0,2.668,1.147,2.668,2.533C81.753,22.062,81.448,22.877,81.012,24.055 M173.971,21.451
		c0.595-0.864,0.909-1.858,0.909-2.926c0-1.348-0.497-2.586-1.44-3.584c-0.991-1.043-2.254-1.59-3.657-1.59
		c-1.339,0-2.57,0.485-3.562,1.4c-0.43,0.395-0.773,0.846-1.041,1.332c-0.667-0.307-1.385-0.473-2.135-0.486l-0.098-0.002
		c-1.385,0-2.646,0.53-3.648,1.531l-1.111,1.109v-2.984c0-1.423-0.526-2.708-1.523-3.712c-1.014-1.011-2.298-1.539-3.726-1.539
		c-1.445,0-2.747,0.554-3.763,1.603c-0.995,1.017-1.525,2.283-1.525,3.648v3.881c-0.967-0.844-2.06-1.529-3.272-2.027
		c-1.125-0.459-2.339-0.744-3.609-0.84c-0.287-0.024-0.573-0.039-0.852-0.043h-0.015h-0.116c-1.655,0-3.228,0.316-4.676,0.941
		c-1.435,0.62-2.698,1.48-3.763,2.562c-0.152,0.153-0.286,0.305-0.403,0.439l-1.559,1.391c-0.102-0.301-0.234-0.596-0.396-0.882
		l-0.145-0.257l-0.198-0.22l-0.073-0.085c-0.123-0.139-0.247-0.275-0.378-0.406c-1.07-1.07-2.336-1.925-3.758-2.541
		c-1.453-0.627-3.003-0.943-4.606-0.943h-0.055h-0.053c-1.186,0.049-2.342,0.25-3.434,0.604c-0.075,0.023-0.146,0.05-0.218,0.076
		l-0.045,0.016c-0.264,0.09-0.583,0.206-0.908,0.35c-1.425,0.623-2.687,1.478-3.747,2.537c-0.412,0.414-0.792,0.866-1.144,1.348
		c-0.423-0.625-0.914-1.226-1.467-1.795l-0.045-0.049l-0.049-0.043c-0.962-0.897-2.025-1.623-3.158-2.158
		c-1.129-0.53-2.302-0.889-3.488-1.064c-0.599-0.089-1.206-0.134-1.809-0.134c-0.483,0-0.971,0.03-1.458,0.087v-0.744
		c0-0.673-0.129-1.339-0.383-1.975c-0.273-0.676-0.674-1.271-1.195-1.77c-0.468-0.439-0.989-0.792-1.559-1.053
		c-0.61-0.279-1.259-0.421-1.923-0.421c-0.05,0-0.098,0-0.146,0.003c-0.054-0.003-0.108-0.003-0.16-0.003
		c-0.622,0-1.232,0.127-1.816,0.381c-0.581,0.253-1.106,0.599-1.562,1.03c-0.441,0.412-0.816,0.91-1.109,1.472
		c-0.146,0.282-0.255,0.571-0.341,0.864c-0.63-0.281-1.312-0.43-2.037-0.43c-1.339,0-2.572,0.486-3.563,1.401
		c-0.538,0.498-0.947,1.075-1.226,1.711c-0.754-0.376-1.625-0.583-2.58-0.583c-2.465,0-4.417,1.455-5.097,3.799l-0.586,1.95
		c-0.749-1.44-2.088-2.935-4.645-2.935c-2.56,0-3.9,1.498-4.648,2.934l-0.585-1.949c-0.677-2.343-2.629-3.799-5.096-3.799
		c-3.115,0-5.377,2.203-5.377,5.241v0.096l0.008,0.099c0.094,1.321,0.499,2.411,0.968,3.669l3.673,10.279
		c1.028,2.914,2.988,4.396,5.825,4.396c3.157,0,4.544-1.877,5.232-3.381c0.691,1.512,2.079,3.381,5.231,3.381
		c2.835,0,4.795-1.48,5.829-4.406l1.426-3.986v3.484v0.182l0.024,0.186c0.187,1.369,0.78,2.531,1.718,3.365
		c0.949,0.844,2.15,1.289,3.469,1.289h0.096l0.095-0.006c1.408-0.098,2.627-0.652,3.523-1.602c0.663-0.701,1.096-1.553,1.281-2.498
		c0.147,0.162,0.289,0.33,0.445,0.482c1.077,1.061,2.337,1.914,3.743,2.539c1.456,0.643,3,0.971,4.589,0.971
		c1.602,0,3.147-0.316,4.599-0.943c1.426-0.615,2.692-1.471,3.766-2.547c0.45-0.449,0.854-0.939,1.228-1.455
		c0.454,0.691,0.97,1.332,1.56,1.91c1.085,1.066,2.359,1.906,3.794,2.492c1.432,0.586,2.977,0.883,4.59,0.883
		c1.654,0,3.229-0.316,4.678-0.943c0.679-0.291,1.319-0.639,1.918-1.037v0.045l0.204-0.182c0.589-0.412,1.136-0.875,1.64-1.387
		c0.153-0.154,0.306-0.316,0.451-0.482l1.512-1.348c0.103,0.301,0.234,0.594,0.397,0.881l0.144,0.258l0.198,0.223l0.074,0.082
		c0.053,0.059,0.104,0.117,0.158,0.176c0.08,0.119,0.162,0.232,0.251,0.342l0.134,0.17l0.16,0.145
		c1.018,0.924,2.175,1.656,3.441,2.176c1.432,0.586,2.978,0.883,4.593,0.883c1.66-0.002,3.233-0.318,4.678-0.943
		c1.39-0.598,2.621-1.434,3.669-2.475c0.277,0.594,0.669,1.137,1.18,1.613c1.036,0.959,2.289,1.465,3.628,1.465
		c1.418,0,2.706-0.553,3.724-1.596c0.443-0.453,0.794-0.955,1.047-1.492l1.593,1.58c0.996,0.998,2.243,1.529,3.592,1.529
		c0.096,0,0.193-0.002,0.289-0.008c1.157-0.062,2.238-0.471,3.144-1.18c0.949,0.838,2.146,1.279,3.457,1.279h0.096l0.093-0.006
		c1.406-0.098,2.623-0.65,3.521-1.598c0.906-0.957,1.388-2.193,1.388-3.57V24.331v-0.104l-0.007-0.103
		C174.798,23.147,174.488,22.236,173.971,21.451"/>
</g>
</svg>
